<svg xmlns="http://www.w3.org/2000/svg" width="592" height="500" viewBox="0 0 592 500"><polygon points="95.95 318.41 85.48 318.41 87.6 492 93.71 492 95.95 318.41" style="fill:#e1ceb3;fill-rule:evenodd"/><polygon points="95.33 351.09 85.97 346.48 85.6 329.02 95.7 329.02 95.33 351.09" style="fill:#cfb292;fill-rule:evenodd"/><polyline points="56.3 335 295.35 335 295.35 307.82 56.3 307.82 56.3 335" style="fill:#e1ceb3;fill-rule:evenodd"/><rect x="121.37" y="260.8" width="4.36" height="44.89" style="fill:#ff2427"/><rect x="99.55" y="303.45" width="45.14" height="4.36" style="fill:#ff2427"/><path d="M101.92,288.74h51a3,3,0,0,0,2.87-3.62L142,220.9a2.94,2.94,0,0,0-2.87-2.37h-51a3,3,0,0,0-2.86,3.62l13.84,64.22a3,3,0,0,0,2.87,2.37" style="fill:#ff2427"/><polygon points="106.41 280.38 148.31 280.38 136.21 226.88 94.31 226.88 106.41 280.38" style="fill:#fff"/><path d="M121.89,261.7a8.59,8.59,0,1,0-8.56-8.58A8.57,8.57,0,0,0,121.89,261.7Z" style="fill:#009848"/><path d="M118.55,254.74l2.29,1.88,5.28-6.49" style="fill:none;stroke:#fff;stroke-linecap:round;stroke-linejoin:round;stroke-width:1.33899747916945px"/><path d="M33.92,424.47c7.11-26,13.88-61.11,4.13-104.56C22.8,357.29,24.64,393.17,27.62,422.64Z" style="fill:#009848;fill-rule:evenodd"/><path d="M42.41,426.31C52.61,398.56,64,360.84,60.75,311.88c-19.49,39.44-27.28,80.83-25.33,115.57Z" style="fill:#00762a;fill-rule:evenodd"/><path d="M46.77,442C59.84,414.27,72.1,387.9,75.2,344.22c-22.93,31.07-30.84,65.35-35.89,93.89Z" style="fill:#009848;fill-rule:evenodd"/><path d="M29.45,450C16.38,422.29,4,395.92,1,352.24c22.93,31.07,30.84,65.35,35.89,93.9Z" style="fill:#00762a;fill-rule:evenodd"/><path d="M64.15,420.11H10.06s-.79,57.18,27,57.18,27.05-57.18,27.05-57.18" style="fill:#4141a2"/><path d="M64.15,420.11s.79,57.18-27.05,57.18c0,0,18.95-13.94,15.61-57.18Z" style="fill:#3a3a91"/><rect x="9.93" y="465.42" width="54.35" height="5.82" style="fill:#e1ceb3"/><rect x="8.49" y="432.19" width="5.7" height="59.62" rx="2.71" style="fill:#e1ceb3"/><rect x="60.01" y="432.19" width="5.7" height="59.62" rx="2.71" style="fill:#e1ceb3"/><path d="M202.35.29H391a26.4,26.4,0,0,1,26.4,26.4V457.47a33,33,0,0,1-33,33H209a33,33,0,0,1-33-33V26.69A26.4,26.4,0,0,1,202.35.29" style="fill:#e9eaf2"/><path d="M204.18,2.33H382.85a26.4,26.4,0,0,1,26.4,26.4V448.25a33,33,0,0,1-33,33H210.78a33,33,0,0,1-33-33V28.73a26.4,26.4,0,0,1,26.4-26.4" style="fill:#fff"/><path d="M376.25,483.19H210.78a35,35,0,0,1-34.94-34.94V28.73A28.37,28.37,0,0,1,204.18.39H382.85a28.37,28.37,0,0,1,28.34,28.34V448.25a35,35,0,0,1-34.94,34.94M204.18,4.27a24.48,24.48,0,0,0-24.46,24.46V448.25a31.09,31.09,0,0,0,31.06,31.06H376.25a31.1,31.1,0,0,0,31.06-31.06V28.73A24.49,24.49,0,0,0,382.85,4.27H204.18" style="fill:#e9eaf2"/><path d="M380,10.87H346.6a3.73,3.73,0,0,0-3.73,3.73v5.13a8.07,8.07,0,0,1-8.07,8.07H249.9a8.07,8.07,0,0,1-8.07-8.07V14.6a3.73,3.73,0,0,0-3.73-3.73h-31a21.4,21.4,0,0,0-21.4,21.39v416a25,25,0,0,0,25,25H376.35a25,25,0,0,0,25-25v-416A21.4,21.4,0,0,0,380,10.87" style="fill:#e8e9f2"/><path d="M386,290.07H201a6.49,6.49,0,0,1-6.5-6.49V170.26a6.49,6.49,0,0,1,6.5-6.49H386a6.49,6.49,0,0,1,6.49,6.49V283.58a6.49,6.49,0,0,1-6.49,6.49" style="fill:#fff"/><polygon points="211.59 113.54 210.6 105.2 207.25 112.13 205.47 112.13 202.11 105.22 201.1 113.54 198.9 113.54 200.41 101.13 202.32 101.13 206.35 109.67 210.37 101.13 212.28 101.13 213.79 113.54 211.59 113.54" style="fill:#3e4451"/><path d="M215.37,109.31a4.48,4.48,0,0,1,8.95,0,4.48,4.48,0,0,1-8.95,0Zm6.84,0a2.37,2.37,0,1,0-2.37,2.46A2.34,2.34,0,0,0,222.21,109.31Z" style="fill:#3e4451"/><path d="M232.15,105.24l-.42,2a2.63,2.63,0,0,0-1.22-.31c-1.37,0-2.12,1.33-2.12,3.69v2.94h-2.11v-8.41h2.09v1.8a2.47,2.47,0,0,1,2.41-2A3.12,3.12,0,0,1,232.15,105.24Z" style="fill:#3e4451"/><path d="M241.6,108.82v4.72h-2.09V109a1.79,1.79,0,0,0-1.75-2,2,2,0,0,0-2.14,2.14v4.4h-2.09v-8.41h2.09v1.33a2.92,2.92,0,0,1,2.61-1.51C240.39,105,241.6,106.37,241.6,108.82Z" style="fill:#3e4451"/><path d="M243.65,102.16a1.32,1.32,0,0,1,1.37-1.28,1.28,1.28,0,1,1,0,2.56A1.33,1.33,0,0,1,243.65,102.16Zm.32,3h2.09v8.41H244Z" style="fill:#3e4451"/><path d="M256.61,108.82v4.72h-2.09V109a1.79,1.79,0,0,0-1.74-2,2,2,0,0,0-2.15,2.14v4.4h-2.09v-8.41h2.09v1.33a2.92,2.92,0,0,1,2.61-1.51C255.4,105,256.61,106.37,256.61,108.82Z" style="fill:#3e4451"/><path d="M267.5,105.13v7.22c0,3.78-1.84,5.42-4.72,5.42a4.36,4.36,0,0,1-4-2.47l1.73-.79a2.57,2.57,0,0,0,2.25,1.37c1.62,0,2.63-.94,2.63-3.33v-.13a3.45,3.45,0,0,1-2.79,1.3,4.16,4.16,0,0,1-4.14-4.4A4.12,4.12,0,0,1,262.6,105a3.38,3.38,0,0,1,2.81,1.28v-1.1Zm-2.12,4.18a2.42,2.42,0,0,0-2.44-2.42,2.43,2.43,0,0,0,0,4.86A2.4,2.4,0,0,0,265.38,109.31Z" style="fill:#3e4451"/><path d="M268.6,116a6.55,6.55,0,0,0,1.42-4.76h2a6.4,6.4,0,0,1-2.14,5.24Z" style="fill:#3e4451"/><polygon points="291.23 113.54 290.24 105.2 286.88 112.13 285.1 112.13 281.74 105.22 280.73 113.54 278.53 113.54 280.04 101.13 281.95 101.13 285.99 109.67 290 101.13 291.91 101.13 293.42 113.54 291.23 113.54" style="fill:#3e4451"/><path d="M304,105.13v8.41H302V112.4a3.35,3.35,0,0,1-2.79,1.32,4.16,4.16,0,0,1-4.14-4.4,4.12,4.12,0,0,1,4.12-4.37,3.37,3.37,0,0,1,2.81,1.29v-1.11Zm-2.13,4.18a2.41,2.41,0,0,0-2.43-2.42,2.43,2.43,0,0,0,0,4.86A2.4,2.4,0,0,0,301.91,109.31Z" style="fill:#3e4451"/><path d="M315,105.13v7.22c0,3.78-1.84,5.42-4.72,5.42a4.36,4.36,0,0,1-4-2.47l1.73-.79a2.56,2.56,0,0,0,2.25,1.37c1.62,0,2.63-.94,2.63-3.33v-.13a3.48,3.48,0,0,1-2.79,1.3,4.16,4.16,0,0,1-4.14-4.4,4.12,4.12,0,0,1,4.12-4.37,3.39,3.39,0,0,1,2.81,1.28v-1.1Zm-2.13,4.18a2.41,2.41,0,0,0-2.43-2.42,2.43,2.43,0,0,0,0,4.86A2.4,2.4,0,0,0,312.91,109.31Z" style="fill:#3e4451"/><path d="M326,105.13v7.22c0,3.78-1.84,5.42-4.72,5.42a4.36,4.36,0,0,1-4-2.47l1.73-.79a2.56,2.56,0,0,0,2.25,1.37c1.62,0,2.63-.94,2.63-3.33v-.13a3.48,3.48,0,0,1-2.79,1.3,4.17,4.17,0,0,1-4.15-4.4,4.12,4.12,0,0,1,4.13-4.37,3.39,3.39,0,0,1,2.81,1.28v-1.1Zm-2.13,4.18a2.41,2.41,0,0,0-2.43-2.42,2.43,2.43,0,0,0,0,4.86A2.4,2.4,0,0,0,323.91,109.31Z" style="fill:#3e4451"/><path d="M328.19,102.16a1.32,1.32,0,0,1,1.37-1.28,1.28,1.28,0,1,1,0,2.56A1.33,1.33,0,0,1,328.19,102.16Zm.33,3h2.09v8.41h-2.09Z" style="fill:#3e4451"/><path d="M341.23,110.06h-6.5a2.18,2.18,0,0,0,2.37,1.77,2.79,2.79,0,0,0,2.29-1l1.39,1.06a4.41,4.41,0,0,1-3.78,1.88,4.39,4.39,0,1,1,0-8.77,4.13,4.13,0,0,1,4.3,4.3C341.28,109.49,341.26,109.76,341.23,110.06Zm-2-1.46a2,2,0,0,0-2.18-1.82,2.12,2.12,0,0,0-2.28,1.82Z" style="fill:#3e4451"/><path d="M215.76,206.38h-3.61l-.77,2.31H209.3l3.6-9.65H215l3.59,9.65h-2.05Zm-.59-1.7-1.23-3.62-1.22,3.62Z" style="fill:#3e4451"/><path d="M226.58,205.41a3.23,3.23,0,0,1-3.21,3.41,2.61,2.61,0,0,1-2.1-.94v4h-1.83v-9.74h1.83V203a2.63,2.63,0,0,1,2.1-1A3.24,3.24,0,0,1,226.58,205.41Zm-1.87,0a1.69,1.69,0,1,0-1.69,1.68A1.66,1.66,0,0,0,224.71,205.41Z" style="fill:#3e4451"/><path d="M235.18,205.41a3.24,3.24,0,0,1-3.21,3.41,2.6,2.6,0,0,1-2.1-.94v4H228v-9.74h1.84V203a2.61,2.61,0,0,1,2.1-1A3.25,3.25,0,0,1,235.18,205.41Zm-1.88,0a1.69,1.69,0,1,0-1.68,1.68A1.66,1.66,0,0,0,233.3,205.41Z" style="fill:#3e4451"/><path d="M241.41,202.2,241,204a1.84,1.84,0,0,0-.94-.24c-.94,0-1.58.87-1.58,2.73v2.24h-1.84v-6.53h1.82v1.39a2,2,0,0,1,1.92-1.56A2.42,2.42,0,0,1,241.41,202.2Z" style="fill:#3e4451"/><path d="M241.82,205.41a3.52,3.52,0,1,1,3.52,3.41A3.41,3.41,0,0,1,241.82,205.41Zm5.17,0a1.65,1.65,0,1,0-1.65,1.7A1.64,1.64,0,0,0,247,205.41Z" style="fill:#3e4451"/><polygon points="256.43 202.16 253.67 208.69 252.03 208.69 249.27 202.16 251.26 202.16 252.86 206.34 254.43 202.16 256.43 202.16" style="fill:#3e4451"/><path d="M263.69,206h-4.93a1.6,1.6,0,0,0,1.7,1.18,2.28,2.28,0,0,0,1.71-.73l1.08,1.08a3.66,3.66,0,0,1-2.92,1.28,3.3,3.3,0,0,1-3.47-3.39,3.35,3.35,0,0,1,3.47-3.44,3.25,3.25,0,0,1,3.39,3.32C263.72,205.5,263.71,205.72,263.69,206Zm-1.8-1.19a1.39,1.39,0,0,0-1.53-1.23,1.51,1.51,0,0,0-1.6,1.23Z" style="fill:#3e4451"/><path d="M271.88,198.67v10h-1.83v-.81a2.67,2.67,0,0,1-2.1.94,3.41,3.41,0,0,1,0-6.81,2.58,2.58,0,0,1,2.1.94v-4.28ZM270,205.41a1.7,1.7,0,1,0-1.69,1.7A1.68,1.68,0,0,0,270,205.41Z" style="fill:#3e4451"/><polygon points="280.42 203.2 279.01 203.2 279.01 208.69 277.79 208.69 277.79 203.2 276.61 203.2 276.61 202.15 277.79 202.15 277.79 199.67 279.01 199.67 279.01 202.15 280.42 202.15 280.42 203.2" style="fill:#3e4451"/><path d="M281.19,205.4a3.43,3.43,0,0,1,6.85,0,3.43,3.43,0,1,1-6.85,0Zm5.63,0a2.2,2.2,0,1,0-2.21,2.28A2.19,2.19,0,0,0,286.82,205.4Z" style="fill:#3e4451"/><polygon points="302.91 202.15 300.48 208.69 299.45 208.69 297.64 203.83 295.91 208.69 294.9 208.69 292.41 202.15 293.72 202.15 295.39 206.8 297.06 202.15 298.25 202.15 299.93 206.8 301.6 202.15 302.91 202.15" style="fill:#3e4451"/><path d="M303.62,205.4a3.43,3.43,0,0,1,6.85,0,3.43,3.43,0,1,1-6.85,0Zm5.63,0a2.2,2.2,0,1,0-2.21,2.28A2.2,2.2,0,0,0,309.25,205.4Z" style="fill:#3e4451"/><path d="M316.36,202.26l-.19,1.15a2.26,2.26,0,0,0-1-.23c-1.3,0-1.82,1.39-1.82,3.11v2.4h-1.23v-6.54h1.23v1.48c.34-1.15,1-1.62,1.84-1.62A2.39,2.39,0,0,1,316.36,202.26Z" style="fill:#3e4451"/><polygon points="321.81 208.69 318.8 205.5 318.8 208.69 317.58 208.69 317.58 198.58 318.8 198.58 318.8 204.46 321.07 202.15 322.76 202.15 319.96 204.98 323.45 208.69 321.81 208.69" style="fill:#3e4451"/><path d="M210.18,216.54a.87.87,0,1,1,.86.81A.84.84,0,0,1,210.18,216.54Zm.26,2.41h1.22v6.54h-1.22Z" style="fill:#3e4451"/><path d="M219.79,221.71v3.78h-1.22v-3.71A1.59,1.59,0,0,0,217,220a1.87,1.87,0,0,0-2,1.94v3.54h-1.22V219H215v1a2.48,2.48,0,0,1,2.17-1.13C218.78,218.81,219.81,219.87,219.79,221.71Z" style="fill:#3e4451"/><polygon points="228.5 220 227.08 220 227.08 225.49 225.87 225.49 225.87 220 224.69 220 224.69 218.95 225.87 218.95 225.87 216.47 227.08 216.47 227.08 218.95 228.5 218.95 228.5 220" style="fill:#3e4451"/><path d="M235.88,221.71v3.78h-1.22v-3.71a1.59,1.59,0,0,0-1.58-1.77,1.87,1.87,0,0,0-2,1.94v3.54h-1.22V215.38h1.22v4.56a2.5,2.5,0,0,1,2.17-1.13C234.87,218.81,235.89,219.87,235.88,221.71Z" style="fill:#3e4451"/><path d="M244,222.74h-5.32a2,2,0,0,0,2.14,1.74,2.11,2.11,0,0,0,1.9-1l1.07.42a3.41,3.41,0,1,1-3-5.1,3.16,3.16,0,0,1,3.25,3.39C244.07,222.38,244.05,222.56,244,222.74Zm-1.19-1.05a1.9,1.9,0,0,0-2-1.73,1.93,1.93,0,0,0-2.09,1.73Z" style="fill:#3e4451"/><path d="M248.81,222.2a3.43,3.43,0,0,1,6.85,0,3.43,3.43,0,1,1-6.85,0Zm5.63,0a2.2,2.2,0,1,0-2.21,2.28A2.2,2.2,0,0,0,254.44,222.2Z" style="fill:#3e4451"/><path d="M267.94,225.49h-1.22V220h-3v5.49h-1.22V220H259v5.49h-1.21V220H256.5V219h1.26v-.69c0-1.71.71-2.88,2.46-2.88h.7v1.14h-.49c-1.16,0-1.47.72-1.46,1.57V219h3.58v-.69c0-1.71.7-2.88,2.46-2.88h.45v1.14h-.24c-1.17,0-1.47.72-1.45,1.57V219h4.17Zm.25-9a.82.82,0,0,1-.85.81.81.81,0,1,1,0-1.62A.82.82,0,0,1,268.19,216.54Z" style="fill:#3e4451"/><path d="M269.61,222.21a3.38,3.38,0,0,1,3.52-3.4,3.34,3.34,0,0,1,2.49,1l-.77.8a2.29,2.29,0,0,0-1.68-.68,2.26,2.26,0,1,0,0,4.51,2.29,2.29,0,0,0,1.68-.69l.77.8a3.31,3.31,0,0,1-2.49,1A3.39,3.39,0,0,1,269.61,222.21Z" style="fill:#3e4451"/><path d="M283.13,222.74H277.8a2,2,0,0,0,2.15,1.74,2.11,2.11,0,0,0,1.9-1l1.07.42a3.42,3.42,0,0,1-6.38-1.71,3.25,3.25,0,0,1,3.37-3.39,3.15,3.15,0,0,1,3.24,3.39C283.15,222.38,283.14,222.56,283.13,222.74Zm-1.19-1.05a2.09,2.09,0,0,0-4.12,0Z" style="fill:#3e4451"/><polyline points="215.76 183.07 209.61 183.07 209.61 184.2 212.07 184.2 212.07 191.34 213.31 191.34 213.31 184.2 215.76 184.2 215.76 183.07" style="fill:#9ea1a8"/><path d="M218.41,190.34a1.81,1.81,0,1,1,1.77-1.82,1.75,1.75,0,0,1-1.77,1.82m0-4.72a2.83,2.83,0,0,0-2.94,2.9,2.95,2.95,0,1,0,2.94-2.9" style="fill:#9ea1a8"/><path d="M225.32,190.34a1.76,1.76,0,0,1-1.74-1.82,1.72,1.72,0,0,1,1.74-1.79,1.78,1.78,0,0,1,1.79,1.79,1.75,1.75,0,0,1-1.79,1.82m3-7.64h-1.17v3.86a2.2,2.2,0,0,0-1.94-.94,2.92,2.92,0,0,0,0,5.84,2.25,2.25,0,0,0,1.93-1v.84h1.17V182.7" style="fill:#9ea1a8"/><path d="M232.62,190.34a1.76,1.76,0,0,1-1.74-1.82,1.72,1.72,0,0,1,1.74-1.79,1.77,1.77,0,0,1,1.78,1.79,1.75,1.75,0,0,1-1.78,1.82m-.15-4.72a2.92,2.92,0,0,0,0,5.84,2.24,2.24,0,0,0,1.93-1v.84h1.18v-5.6h-1.18v.82a2.2,2.2,0,0,0-1.94-.94" style="fill:#9ea1a8"/><polyline points="242.39 185.74 241.12 185.74 239.51 189.63 237.91 185.74 236.64 185.74 238.87 191.1 237.67 194.06 238.92 194.06 242.39 185.74" style="fill:#9ea1a8"/><rect x="207.9" y="250.39" width="170.68" height="27.44" rx="4.64" style="fill:#ff2427"/><path d="M276.23,265.15h1.45a1.4,1.4,0,0,0,1.53,1.23c.84,0,1.38-.48,1.38-1.13s-.49-.91-1.18-1.1l-1-.29c-1.77-.46-2.08-1.53-2.08-2.25a2.56,2.56,0,0,1,2.8-2.41,2.48,2.48,0,0,1,2.7,2.49h-1.45a1.3,1.3,0,0,0-2.58-.1c0,.23.07.72,1,1l1,.26c1.3.36,2.3,1.06,2.3,2.38a2.6,2.6,0,0,1-2.88,2.49A2.68,2.68,0,0,1,276.23,265.15Z" style="fill:#fff"/><path d="M283.17,260a.88.88,0,0,1,.92-.85.85.85,0,1,1,0,1.7A.89.89,0,0,1,283.17,260Zm.22,2h1.39v5.6h-1.39Z" style="fill:#fff"/><path d="M292.11,262v4.81c0,2.52-1.22,3.61-3.14,3.61a2.89,2.89,0,0,1-2.65-1.64l1.15-.53a1.72,1.72,0,0,0,1.5.91c1.08,0,1.75-.62,1.75-2.22v-.08a2.29,2.29,0,0,1-1.86.86,2.92,2.92,0,0,1,0-5.84,2.28,2.28,0,0,1,1.87.85V262Zm-1.41,2.78a1.61,1.61,0,0,0-1.62-1.6,1.55,1.55,0,0,0-1.57,1.6,1.58,1.58,0,0,0,1.57,1.64A1.6,1.6,0,0,0,290.7,264.74Z" style="fill:#fff"/><path d="M299.14,264.42v3.14h-1.39v-3a1.19,1.19,0,0,0-1.16-1.34,1.34,1.34,0,0,0-1.43,1.43v2.92h-1.39V262h1.39v.89a1.94,1.94,0,0,1,1.74-1C298.34,261.84,299.14,262.79,299.14,264.42Z" style="fill:#fff"/><path d="M303.44,260a.88.88,0,0,1,.91-.85.85.85,0,1,1,0,1.7A.88.88,0,0,1,303.44,260Zm.22,2h1.39v5.6h-1.39Z" style="fill:#fff"/><path d="M312.08,264.42v3.14h-1.39v-3a1.19,1.19,0,0,0-1.17-1.34,1.34,1.34,0,0,0-1.42,1.43v2.92h-1.39V262h1.39v.89a1.94,1.94,0,0,1,1.74-1C311.28,261.84,312.08,262.79,312.08,264.42Z" style="fill:#fff"/><path d="M361.89,196a2.14,2.14,0,0,0-1.27.43l-.32.25a2.09,2.09,0,0,1-1.27.43,2.17,2.17,0,0,1-.66-.11l-.38-.13a2.16,2.16,0,0,0-.66-.1,2.06,2.06,0,0,0-1.74.93l-.23.34a2.06,2.06,0,0,1-1.72.93h-.4a2.09,2.09,0,0,0-2,1.56l-.1.39a2.1,2.1,0,0,1-1.33,1.45l-.37.13a2.1,2.1,0,0,0-1.39,2.13l0,.4a2.11,2.11,0,0,1-.79,1.8l-.32.25a2.12,2.12,0,0,0-.62,2.48l.16.36a2.13,2.13,0,0,1-.16,2l-.22.34a2.11,2.11,0,0,0,.21,2.54l.27.3a2.08,2.08,0,0,1,.48,1.91l-.09.39a2.08,2.08,0,0,0,1,2.33l.35.2a2.09,2.09,0,0,1,1.07,1.64l0,.4a2.09,2.09,0,0,0,1.72,1.88l.39.07a2.12,2.12,0,0,1,1.55,1.2l.16.37a2.1,2.1,0,0,0,1.91,1.24l.33,0,.39-.06a1.84,1.84,0,0,1,.33,0,2.1,2.1,0,0,1,1.53.67l.27.29a2.08,2.08,0,0,0,1.53.67,2,2,0,0,0,1-.25l.35-.19a2.15,2.15,0,0,1,1-.24,2.09,2.09,0,0,1,1,.24l.36.19a2,2,0,0,0,1,.25,2.06,2.06,0,0,0,1.53-.67l.28-.29a2.08,2.08,0,0,1,1.52-.67,1.84,1.84,0,0,1,.33,0l.4.06.33,0a2.09,2.09,0,0,0,1.9-1.24l.17-.37a2.08,2.08,0,0,1,1.54-1.2l.4-.07a2.1,2.1,0,0,0,1.72-1.88l0-.4a2.07,2.07,0,0,1,1.07-1.64l.35-.2a2.11,2.11,0,0,0,1-2.33l-.1-.39a2.14,2.14,0,0,1,.48-1.91l.27-.3a2.09,2.09,0,0,0,.21-2.54l-.21-.34a2.1,2.1,0,0,1-.17-2l.16-.36a2.12,2.12,0,0,0-.62-2.48l-.32-.25a2.1,2.1,0,0,1-.78-1.8l0-.4a2.1,2.1,0,0,0-1.39-2.13l-.38-.13a2.12,2.12,0,0,1-1.33-1.45l-.1-.39a2.08,2.08,0,0,0-2-1.56h-.41a2.06,2.06,0,0,1-1.72-.93l-.22-.34a2.11,2.11,0,0,0-1.74-.93,2.22,2.22,0,0,0-.67.1l-.38.13a2.07,2.07,0,0,1-1.93-.32l-.32-.25a2.11,2.11,0,0,0-1.27-.43" style="fill:#e5f4ec"/><path d="M361.89,220.7a8.59,8.59,0,1,0-8.56-8.58A8.57,8.57,0,0,0,361.89,220.7Z" style="fill:#009848"/><path d="M360.84,216.28a.66.66,0,0,1-.42-.15l-2.29-1.87a.67.67,0,0,1,.84-1l1.78,1.45,4.85-6a.67.67,0,0,1,1,.85L361.36,216a.65.65,0,0,1-.45.24Z" style="fill:#fff"/><path d="M212.47,42a12.89,12.89,0,1,0,12.89,12.89A12.89,12.89,0,0,0,212.47,42" style="fill:#d6d9e5"/><polyline points="288.04 50.64 239.36 50.64 239.36 59.13 288.04 59.13 288.04 50.64" style="fill:#d6d9e5"/><polyline points="385.64 127.77 197.98 127.77 197.98 136.25 385.64 136.25 385.64 127.77" style="fill:#d6d9e5"/><polyline points="288.04 321.52 197.98 321.52 197.98 330.01 288.04 330.01 288.04 321.52" style="fill:#d6d9e5"/><polyline points="378.58 341.49 197.98 341.49 197.98 349.97 378.58 349.97 378.58 341.49" style="fill:#d6d9e5"/><polyline points="288.04 374 197.98 374 197.98 382.48 288.04 382.48 288.04 374" style="fill:#d6d9e5"/><polyline points="378.58 393.96 197.98 393.96 197.98 402.45 378.58 402.45 378.58 393.96" style="fill:#d6d9e5"/><polyline points="288.04 424.82 197.98 424.82 197.98 433.3 288.04 433.3 288.04 424.82" style="fill:#d6d9e5"/><polyline points="378.58 444.78 197.98 444.78 197.98 453.27 378.58 453.27 378.58 444.78" style="fill:#d6d9e5"/><polygon points="423.76 290.33 469.72 310.42 513.73 277.2 508.32 256.48 466.59 292.41 425.56 281.01 423.76 290.33" style="fill:#f39b59"/><path d="M417.36,299.83l13-7a2.07,2.07,0,0,0,1-2.77l-12.83-26.88a2.07,2.07,0,0,0-2.77-1l-13.91,5.21a2.07,2.07,0,0,0-1,2.77l13.78,28.68A2.07,2.07,0,0,0,417.36,299.83Z" style="fill:#ff2427"/><path d="M417.84,296.21l9.87-5.15a1,1,0,0,0,.48-1.39l-11.54-23.88a1,1,0,0,0-1.38-.48l-10.46,4.05a1,1,0,0,0-.48,1.38l12.13,25A1,1,0,0,0,417.84,296.21Z" style="fill:#eeeff5"/><path d="M423.18,282.24l-4.38-9.15a.59.59,0,0,0-.77-.27l-8.86,3.86a.57.57,0,0,0-.27.77l4.63,10a.58.58,0,0,0,.77.27l8.61-4.67a.57.57,0,0,0,.27-.77" style="fill:#fff"/><path d="M413.27,279.2l2.22-1.08a1.23,1.23,0,0,0-1.08-2.22L412.19,277a1.24,1.24,0,0,0,1.08,2.23" style="fill:#e9e9ea"/><path d="M413.74,282.39l5.68-2.75a.48.48,0,0,0,.23-.64.5.5,0,0,0-.65-.23l-5.68,2.74a.49.49,0,0,0,.42.88" style="fill:#e9e9ea"/><path d="M414.61,284.19l5.69-2.74a.48.48,0,0,0,.22-.65.47.47,0,0,0-.64-.22l-5.69,2.74a.48.48,0,0,0-.22.65.47.47,0,0,0,.64.22" style="fill:#e9e9ea"/><path d="M432.57,283.83s-7.07-14.25-9.34-13.7,4.91,13.08,4.91,13.08Z" style="fill:#f39b59"/><path d="M403,276.14c-.83.85,7.46,17.06,8.89,17s4.05-6,.48-11.68S403.83,275.28,403,276.14Z" style="fill:#f39b59"/><path d="M488.81,224.68c3.79,1.22,11.89-3.9,11.89-3.9s3,14.1-.9,22.56c0,0-.6,16.79,12.19,12.62s10.59-25.81,10.59-25.81l-5.44-14.37a30.67,30.67,0,0,1,3.19-6.94s3.17-22.4-4.72-30.58-29.29-5-29.29-5a15,15,0,0,0-7.93,11.27c-1.09,8.14,7.37,18.95-1.55,26.19,0,0,10.87,13.59,12,13.94" style="fill:#f39b59"/><path d="M484.85,205.43c.46,1.8,1.74,3.06,2.85,2.82s1.63-1.89,1.17-3.69-1.75-3.06-2.86-2.82-1.63,1.89-1.16,3.69" style="fill:#471f05"/><path d="M486.94,221.35a.9.9,0,0,1-.26-1.76,6.92,6.92,0,0,0,4.09-4.14.9.9,0,1,1,1.69.62,8.74,8.74,0,0,1-5.26,5.24Z" style="fill:#471f05"/><path d="M481.93,175.34s13,7,15.35,25.16c1.68,2.53,2.61,12,22.93,8.13,2.73-4.39,15.64-21.09,1.82-37.87S481.93,175.34,481.93,175.34Z" style="fill:#ad4b19"/><path d="M491,199.28a.94.94,0,0,1-.5-.15,9.37,9.37,0,0,0-7.37-.71.9.9,0,0,1-.49-1.73,11.13,11.13,0,0,1,8.86.94.91.91,0,0,1,.25,1.25A.9.9,0,0,1,491,199.28Z" style="fill:#471f05"/><path d="M524.71,246.5l9.65,61.36s23.51-1.11,26-5.83S553,241.44,524.71,246.5Z" style="fill:#ffb0c5"/><path d="M560.83,274.51l5,18.31a2.4,2.4,0,0,1-1.55,2.9l-6.44,2.17-8.22-22.78,8.28-2.29A2.41,2.41,0,0,1,560.83,274.51Z" style="fill:#ffb0c5"/><path d="M538.17,315.82l-15.58-85.67s-3.82,12.15-21.52,9.45l-10,20.76-8.66,55.31Z" style="fill:#4141a2"/><path d="M492,216.22l-.41-.5,11.33-9.43c1.43-1.33,2.29-3.73,1-5.51a4.51,4.51,0,0,0-3.16-2.2,4.88,4.88,0,0,0-4,1.23l-6.74,6.94-.47-.45,6.76-7a5.51,5.51,0,0,1,4.56-1.4,5.11,5.11,0,0,1,3.59,2.49c1.47,2.06.51,4.81-1.14,6.35Z" style="fill:#fff"/><path d="M476.47,210.41c0-2,1-3.81,3-4.2,3.41-.92,8.89-1.59,12.23,1.55,4.2,4.09,3.59,13.2,3.13,16.44a1.52,1.52,0,0,1-1.51,1.43l-6.78.93a7.47,7.47,0,0,1-7.74-3.81A48.16,48.16,0,0,1,476.47,210.41Z" style="fill:#fff"/><path d="M477.27,216.53c.13.65.22,1.08.3,1.52a3.3,3.3,0,0,0,1.56-.1c2.89-.14,5.74-1.62,8.57-5.34l-1.08-.9C483.44,216,480,216.87,477.27,216.53Z" style="fill:#cacaca"/><path d="M479.06,222c0,.22.26.17.13.65.26.17.39.82.65,1a2.3,2.3,0,0,0,1.34-.05c2.89-.14,5.74-1.62,8.57-5.34l-1.08-.9C485.49,221.6,481.82,222.35,479.06,222Z" style="fill:#cacaca"/><path d="M530.75,292.64A28.48,28.48,0,0,1,514,287.51c-6.37-4.66-10.23-12.15-11.47-22.28-.93-10.39,1.08-17.07,6-19.93,8-4.67,19.73,3.07,21.05,4a2.4,2.4,0,1,1-2.71,4c-2.88-2-11.35-6.46-15.91-3.78-3.1,1.81-4.35,7.09-3.62,15.27,1.07,8.66,4.27,15,9.5,18.88,7.74,5.7,17.58,4,17.68,4a2.4,2.4,0,0,1,.88,4.72A27.23,27.23,0,0,1,530.75,292.64Z" style="fill:#ffb0c5"/><polygon points="415.75 480.82 420.62 489.49 429.99 494.01 492.95 382.29 462.59 381.97 424.65 484.58 415.75 480.82" style="fill:#f39b59"/><path d="M513.56,407.72l60.66,72.63-6.28,5.16,7.81,4.77,10.34-9.63-48.42-78s2-11.48,3.78-26.25c2.27-19.17-33,.67-33,.67Z" style="fill:#f39b59"/><path d="M549.25,500h18.93L592,486.48l-6.92-10.66s-5.52,9.58-16.21,9L563.18,489C551.68,489.19,549.25,500,549.25,500Z" style="fill:#ffb0c5"/><path d="M392.53,481.51,429.59,500l4.44-9.32s-8.89,3.68-14.7-8.28l-9.68-4.25C399.28,473.2,392.53,481.51,392.53,481.51Z" style="fill:#ffb0c5"/><path d="M538.17,315.82c11.09,29.84-.5,86.81-.5,86.81l32.45,47.83L551.37,461.4l-41.8-50.93-1.91-50.29-53.31,95.95L434,449.81,482.4,315.67Z" style="fill:#b5dfeb"/><path d="M473.84,190.72l22.09-1.46s8.19-17-9.81-16.48S473.84,190.72,473.84,190.72Z" style="fill:#ad4b19"/><path d="M519.18,168.89s2.51-18.09,19.34-14.31c17.39,5.21,3.31,27.83,12.52,40.68C530.64,193.88,519.18,168.89,519.18,168.89Z" style="fill:#ad4b19"/><path d="M528.26,274.3l-19-4.84c2.45,18.73,5.88,86.85,5.88,86.85l9,.33S527.43,296.52,528.26,274.3Z" style="fill:#f39b59"/><path d="M506.78,372.23c.92,2.67,18,3.51,19.11.71s-1.73-16.3-1.73-16.3l-9-.33s-9.31,13.26-8.4,15.92" style="fill:#f39b59"/><path d="M501.53,207.26c2.77-.19,4.6-1.82,3.79-6.3s-3.71-4.43-6.17-3.2-2.83,3.31-2,5.89,1.61,3.8,4.39,3.61" style="fill:#f39b59"/></svg>