<svg xmlns="http://www.w3.org/2000/svg" xmlns:xlink="http://www.w3.org/1999/xlink" viewBox="0 0 1667 1461">
  <defs/>
  <defs>
    <path id="a" d="M0 0h1660v1272.667H0z"/>
    <path id="c" d="M0 0h91.586v116.391H0z"/>
    <path id="e" d="M75.423 5.561c-1.622 7.3 1.216 14.598 8.515 21.897-10.543 11.354-23.113 17.03-37.711 17.03-21.897 0-35.279-8.515-40.145-20.68C2.838 15.699.811 8.806 0 3.129 13.787-1.738 38.928-.927 75.423 5.561z"/>
    <path id="g" d="M62.713 5.617c-1.349 7.373 1.011 14.745 7.08 22.118-8.766 11.468-19.218 17.202-31.356 17.202-18.207 0-29.334-8.601-33.38-20.889C2.36 15.857.674 8.894 0 3.16 11.464-1.755 32.368-.936 62.713 5.617z"/>
    <path id="i" d="M131.61 17.858l115.877 2.124v209.885l-120.395 6.244 9.208-46.804 10.06-23.829 6.244-3.689-.718-37.867-20.276-34.884v-71.18zm-11.746-1.041l.64 75.915-16.269 38.15 1.424 24.394-1.983 12.055-17.016 15.321-40.708-22.399 30.082 69.855H15.94V20.223l103.924-3.406z"/>
  </defs>
  <g fill="none" fill-rule="evenodd">
    <g transform="translate(1 78)">
      <mask id="b" fill="#fff">
        <use xlink:href="#a"/>
      </mask>
      <g mask="url(#b)">
        <g fill-rule="nonzero" stroke="#014242" stroke-width="1.874">
          <path d="M669.517 166.64l18.722-10.133-18.722 10.132zM755.403 151.667l-29.678-16.738-.08-28.9"/>
          <path d="M725.536 67.215c32.391-18.517 58.85-3.607 58.945 33.24.11 36.848-26.175 81.876-58.567 100.394-32.407 18.517-58.85 3.606-58.945-33.24-.11-36.848 26.16-81.892 58.567-100.394z"/>
          <path d="M678.972 202.333c-11.92-5.443-19.447-18.846-19.497-38.472-.11-36.847 26.16-81.891 58.566-100.393h0c16.472-9.416 31.41-10.189 42.126-3.828M753.62 176.367l-3.818-5.605 3.818 5.605z"/>
          <path d="M724.968 68.167l.079 23.03-.08-23.03zM781.918 100.3l-18.721 10.144 18.721-10.145z"/>
          <path fill="#014242" d="M726.254 178.99l.063 21.876-.063-21.876z"/>
          <path d="M777.625 74.07l-6.934 6.832 6.934-6.833z"/>
          <path fill="#014242" d="M773.854 141.518l-6.91-1.294 6.91 1.294z"/>
          <path d="M754.977 59.08l-3.022 11.12 3.022-11.12z"/>
          <path fill="#014242" d="M698.73 100.3l-2.982-6.2 2.983 6.2zM698.77 197.726l-3.022 11.12 3.021-11.12z"/>
          <path d="M683.922 130.277l-6.91-1.294 6.91 1.294z"/>
          <path fill="#014242" d="M680.198 186.485l-6.933 6.82 6.933-6.82z"/>
        </g>
        <path stroke="#014242" stroke-width="2" d="M301.471 1095.218l255.8 144.793 114.361-67.645V877.852l-129.497-74.459-84.204-49.715m-228.332 3.137l327.672 188.361 114.361-67.324-114.361 67.324M557.27 945.176v294.835"/>
        <g stroke="#014242" stroke-width="2">
          <path d="M344.96 595.088a2.162 2.162 0 00-1.16.32h0l-2.962 1.681h0a2.442 2.442 0 00-.96 2.162v84.535c.007.627.115 1.25.32 1.842a10.168 10.168 0 00-2.482-.32 7.125 7.125 0 00-3.483.8l-73.212 42.268a2.323 2.323 0 00-1.361 2.161v3.603a3.284 3.284 0 001.961 2.642l113.762 65.923a9.367 9.367 0 004.563 1.12 7.125 7.125 0 003.482-.8l73.213-42.268a2.402 2.402 0 001.36-1.92v-2.523h0a4.363 4.363 0 002.122.68c.44.01.874-.116 1.241-.36l2.882-1.6a2.362 2.362 0 001.08-2.202v-84.496a8.966 8.966 0 00-4.322-6.804l-113.922-65.804a4.363 4.363 0 00-2.121-.68v.04z"/>
          <path d="M456.04 752.392L342.2 686.428a8.967 8.967 0 00-8.006-.32l-73.212 42.268c-2.041 1.2-1.801 3.282.56 4.643l113.842 65.964a8.967 8.967 0 008.005.32l73.213-42.228c2.081-1.24 1.8-3.322-.56-4.683z"/>
        </g>
        <path stroke="#014242" stroke-width="1.2" d="M458.002 756.354h0c2.361 1.361 4.323.56 4.323-1.84v-84.497a8.966 8.966 0 00-4.323-6.804L344.08 597.409c-2.361-1.36-4.323-.56-4.323 1.842v84.535c.015.6.123 1.195.32 1.762"/>
        <g fill="#014242" fill-rule="nonzero">
          <path d="M448.963 723.111l.069 1.855-2.679-1.1-.55-2.129c-1.167.55-2.472.55-3.984-.343-2.06-1.168-3.365-3.297-3.365-5.564 0-1.511.687-2.335 1.648-2.473h.069c1.03-.137 2.679.344 5.152 1.58 0-2.267-.55-3.228-1.786-3.984-1.1-.618-2.404-.893-3.572-.755l-1.03-2.885c1.373-.481 3.228-.275 5.357.961 3.023 1.718 4.396 4.19 4.396 7.83v3.435c.207.825.207 1.786.275 3.572zm-3.434-3.64v-2.198c-1.924-.962-2.817-1.237-3.229-1.1-.343.07-.55.344-.55 1.031 0 .893.344 1.58 1.169 2.06.755.413 1.648.481 2.61.207M432.546 701.268c2.68 1.511 3.847 3.915 3.778 7.075v9.548l-3.365-1.923v-8.45c0-1.991-.344-3.09-1.512-3.777-.893-.481-1.786-.618-2.61-.344v10.166l-3.366-1.923v-8.105c0-.825 0-1.718-.068-3.366l-.138-2.473 2.68 1.168.48 2.13c1.168-.756 2.473-.688 4.121.274zM420.732 688.286c1.099.618 1.786 1.854 1.786 3.022 0 1.305-.825 1.717-1.992 1.03-1.1-.618-1.855-1.854-1.786-3.022-.069-1.305.755-1.717 1.992-1.03zM418.809 707.725V693.78l3.366 1.923v14.013zM414.275 702.298c.412.275 1.168.55 1.855.825l.55 2.953c-1.1-.137-2.474-.618-3.779-1.374-2.198-1.305-3.434-3.16-3.434-6.731v-6.594l-1.718-1.03v-2.954l1.58.893.756-3.778 2.747 1.58v4.19l3.572 2.06v2.954l-3.572-2.06v5.563c0 2.13.344 2.816 1.443 3.503zM402.872 690.278c1.855 1.854 3.366 3.709 3.366 5.976 0 2.679-1.992 3.365-5.083 1.51-1.786-1.03-3.366-2.54-4.67-4.327l1.167-1.717c1.03 1.305 2.13 2.336 3.228 2.954 1.1.618 1.924.687 1.924-.138 0-.824-.893-1.854-2.06-3.022l-.757-.756c-1.58-1.648-2.953-3.365-3.022-5.563-.069-2.748 2.198-3.16 4.946-1.58 1.648.961 2.885 2.266 3.984 3.778l-1.237 1.717c-.893-1.1-1.854-1.992-2.679-2.473-1.099-.618-1.58-.412-1.58.206 0 .824.756 1.649 1.855 2.816l.618.619zM392.638 672.075c1.099.618 1.786 1.854 1.786 3.022 0 1.305-.825 1.717-1.992 1.03-1.1-.618-1.855-1.854-1.786-3.022-.069-1.305.755-1.717 1.992-1.03zM390.715 691.514V677.57l3.366 1.924v13.944zM383.983 675.921c.755-1.167 1.786-1.58 3.16-.755a6.57 6.57 0 011.785 1.58l-.55 3.228a8.34 8.34 0 00-1.373-.961c-1.03-.619-1.923-.756-2.747-.07v8.862l-3.366-1.924v-8.105c0-.824 0-1.717-.069-3.366l-.206-2.541 2.679 1.168.687 2.884zM373.885 667.404c2.61 1.511 3.778 3.847 3.778 7.075v9.548l-3.365-1.923v-8.518c0-1.923-.344-2.954-1.512-3.64-.893-.481-1.786-.687-2.61-.619V679.7l-3.366-1.923.07-21.843 3.365 1.923v8.998c1.03-.48 2.198-.274 3.64.55zM359.941 657.238c-1.305-.756-2.335-.893-3.022-.412-1.168.687-1.648 2.541-1.648 4.602 0 3.366 1.167 7.281 4.808 9.41a10.091 10.091 0 003.572 1.237l.824 3.366c-1.374 0-3.16-.481-5.083-1.649-4.946-2.885-7.693-8.517-7.693-14.15 0-5.358 2.679-8.93 8.105-5.77 2.06 1.168 3.64 2.748 4.74 4.19l-1.168 2.198c-1.1-1.374-2.13-2.267-3.435-3.022zM436.393 682.409c1.855 1.099 2.816 2.473 2.816 3.915 0 1.855-1.442 2.198-3.64.962-1.718-1.03-3.023-2.61-3.023-4.122 0-.893.481-1.305 1.168-1.51a2.194 2.194 0 01-.206-.962c0-.55.206-.893.687-1.1-.824-.961-1.236-2.129-1.236-3.16 0-1.579 1.03-2.472 2.953-1.373.55.343 1.1.756 1.443 1.236.55-.274 1.167-.274 1.992.138l.068 1.58c-.412-.206-.824-.344-1.236-.481.275.618.48 1.305.48 1.923 0 1.717-1.098 2.336-3.022 1.305-.206-.068-.343-.206-.48-.343-.07.069-.138.206-.138.412 0 .618.412.962 1.168 1.442l.206.138zm.962 3.984c.274-.069.412-.344.412-.687 0-.824-.756-1.443-1.855-2.06l-.206-.138c-.275-.206-.618-.412-.962-.687a.97.97 0 00-.686.962c0 .824.755 1.58 1.785 2.198.687.412 1.168.55 1.512.412m-1.512-9.96c-.824-.481-1.305-.206-1.305.687 0 1.03.413 1.854 1.374 2.335.824.481 1.305.206 1.305-.755-.068-.962-.48-1.786-1.374-2.267M425.403 672.449c0-.481 0-1.1-.069-2.198l-.069-1.1 1.305.55.206 1.168c.687-.412 1.443-.343 2.405.206 1.51.893 2.129 2.198 2.129 3.984v5.427l-1.58-.893v-4.74c0-1.305-.206-1.992-.962-2.473-.618-.343-1.236-.412-1.785-.206v5.77l-1.58-.893v-4.602zM422.655 663.931c.55.344.962.962.962 1.58 0 .687-.412.893-1.03.55-.619-.344-.962-.962-.962-1.58 0-.687.412-.893 1.03-.55zM421.762 675.06v-7.969l1.58.893v7.968zM420.388 666.267c0 .343-.068.55-.137.755l-2.267 5.77-1.717-.961-2.267-8.518c-.069-.275-.137-.55-.137-.755l1.648.961 1.237 5.083c.137.618.275 1.237.343 1.924l.069.068 1.648-5.152 1.58.825zM404.658 656.994c1.786 1.03 2.61 2.885 2.61 4.808 0 .48-.068.962-.137 1.305l-4.19-2.404c.138 1.511.756 2.473 1.786 3.09.55.344 1.305.688 1.992.757l.412 1.51c-.893 0-1.786-.343-2.61-.824-1.855-1.03-3.091-3.16-3.091-5.7-.069-2.474 1.168-3.71 3.228-2.542zm1.03 4.052v-.48c0-.893-.343-1.718-1.167-2.199-.893-.48-1.374-.068-1.511 1.1l2.679 1.58M400.125 659.398c0 2.198-1.649 2.404-3.71 1.236-1.304-.755-2.472-1.854-3.16-2.816l.62-1.03c.755.893 1.648 1.717 2.61 2.266 1.03.619 1.991.756 1.991-.412 0-.961-.755-1.854-1.717-2.816l-.343-.344c-1.374-1.442-2.817-2.884-2.817-4.945 0-2.267 1.786-2.267 3.64-1.168.963.55 1.856 1.374 2.611 2.198l-.48 1.168c-.55-.55-1.375-1.237-2.199-1.717-.893-.55-1.923-.825-1.923.343 0 .893.687 1.717 1.58 2.61l.343.344c1.511 1.58 2.954 3.09 2.954 5.083zM386.593 652.872l1.374-5.289 1.58.893c0 .275-.069.55-.138.756l-1.992 5.907-1.786-.962-1.099-4.945-.206-1.237-1.305 4.671-1.717-.961-1.923-8.243c-.07-.344-.138-.618-.138-.962l1.649.962 1.099 5.564.206 1.373.069.07 1.373-5.29 1.58.893 1.1 5.564.274 1.236zM375.26 640.027c1.923 1.1 3.09 3.503 3.09 5.77 0 2.336-1.167 3.71-3.366 2.473-1.923-1.099-3.09-3.434-3.09-5.77.068-2.267 1.236-3.778 3.365-2.473zm.96 6.87c.344-.275.55-.825.55-1.787 0-1.648-.55-3.09-1.58-3.709-.48-.275-.824-.275-1.03-.137-.343.206-.55.824-.55 1.854 0 1.649.55 3.023 1.65 3.64.411.344.755.276.96.138M370.176 645.248l-1.855-1.03-3.572-9.274-.687-2.06-.068-.069.068 1.923v7.006l-1.442-.893v-11.196l1.854 1.03 3.504 9.136.755 2.267v-8.93l1.443.824zM408.986 662.97c0-.481 0-1.03-.069-2.061l-.069-1.236 1.306.55.274 1.579c.481-.687 1.1-.824 1.855-.412.412.206.756.55.962.893l-.275 1.58c-.275-.275-.481-.413-.824-.619-.619-.343-1.168-.412-1.649.07v5.15l-1.58-.892.069-4.602z"/>
        </g>
        <path stroke="#014242" stroke-width=".954" d="M428.86 755.314l-5.043-2.922c-.52-.32-.56-.76 0-1.08l4.684-2.683a2.042 2.042 0 011.84 0l5.044 2.922c.52.32.56.76 0 1.081l-4.683 2.682a2.042 2.042 0 01-1.841 0zM436.586 759.797l-5.043-2.922c-.52-.32-.56-.76 0-1.08l4.603-2.723a2.042 2.042 0 011.841 0l5.044 2.922c.52.32.56.76 0 1.081l-4.683 2.682a2.042 2.042 0 01-1.762.04h0zM413.37 746.348l-5.044-2.922c-.52-.32-.56-.76 0-1.08l4.683-2.683a2.042 2.042 0 011.842 0l5.043 2.922c.52.32.56.76 0 1.081l-4.683 2.682a2.042 2.042 0 01-1.841 0zM421.095 750.83l-5.043-2.921c-.52-.32-.56-.76 0-1.08l4.683-2.683a2.042 2.042 0 011.841 0l5.044 2.922c.52.32.56.76 0 1.081l-4.683 2.682a2.042 2.042 0 01-1.842 0zM404.323 734.74l-4.683 2.682a2.042 2.042 0 01-1.841 0l-5.044-2.922c-.52-.32-.56-.76 0-1.08l4.683-2.682a2.042 2.042 0 011.842 0l5.043 2.921c.44.32.48.801 0 1.081zM407.405 741.905a2.042 2.042 0 01-1.84 0l-5.044-2.922c-.52-.32-.56-.76 0-1.08l4.683-2.682a2.042 2.042 0 011.841 0l5.044 2.921c.52.32.56.76 0 1.081l-4.684 2.682zM383.709 721.812l5.043 2.922c.52.32.56.76 0 1.08l-4.683 2.682a2.042 2.042 0 01-1.841 0l-5.044-2.922c-.52-.32-.56-.76 0-1.08l4.683-2.682a2.042 2.042 0 011.842 0zM396.558 730.257l-4.684 2.682a2.042 2.042 0 01-1.84 0l-5.045-2.922c-.52-.32-.56-.76 0-1.08l4.684-2.682a2.042 2.042 0 011.841 0l5.044 2.922c.48.32.48.8 0 1.08zM369.458 721.051c-.52-.32-.56-.76 0-1.08l4.684-2.682a2.042 2.042 0 011.841 0l5.044 2.922c.52.32.56.76 0 1.08l-4.684 2.682a2.042 2.042 0 01-1.841 0l-5.044-2.922zM360.372 708.323l5.044 2.922c.52.32.56.76 0 1.08l-4.684 2.682a2.042 2.042 0 01-1.841 0l-5.044-2.922c-.52-.32-.56-.76 0-1.08l4.684-2.682a2.042 2.042 0 011.84 0zM368.097 712.806l5.044 2.922c.52.32.56.76 0 1.08l-4.683 2.682a2.042 2.042 0 01-1.842 0l-5.043-2.922c-.52-.32-.56-.76 0-1.08l4.683-2.682a2.042 2.042 0 011.841 0zM338.436 703.12c-.52-.32-.56-.761 0-1.081l4.684-2.682a2.042 2.042 0 011.84 0l5.045 2.922c.52.32.56.76 0 1.08l-4.684 2.682a2.042 2.042 0 01-1.841 0l-5.044-2.922zM352.686 703.84l5.044 2.922c.56.32.6.84 0 1.16l-4.683 2.682c-.629.321-1.373.321-2.002 0l-5.043-2.922c-.56-.32-.6-.84 0-1.16l4.683-2.682a2.202 2.202 0 012.001 0h0zM362.413 718.53l-4.683 2.681a1.881 1.881 0 01-1.681 0l-5.044-2.922c-.48-.28-.52-.72 0-.96l4.684-2.682a1.881 1.881 0 011.68 0l5.044 2.922c.48.28.48.72 0 .96zM346.882 709.604l-4.683 2.681a2.042 2.042 0 01-1.841 0l-5.044-2.922c-.52-.32-.56-.76 0-1.08l4.683-2.682a2.042 2.042 0 011.842 0l5.043 2.922c.52.32.52.8 0 1.08zM354.688 714.087l-4.683 2.681a2.042 2.042 0 01-1.842 0l-5.043-2.922c-.52-.32-.56-.76 0-1.08l4.683-2.682a2.042 2.042 0 011.841 0l5.044 2.922c.44.32.48.8 0 1.08zM326.308 696.675l5.043 2.922c.52.32.56.76 0 1.08l-4.683 2.682a2.042 2.042 0 01-1.841 0l-5.044-2.921c-.52-.32-.56-.761 0-1.081l4.683-2.682a2.042 2.042 0 011.842 0h0zM327.549 703.8l4.683-2.682a2.042 2.042 0 011.841 0l5.044 2.922c.52.32.56.76 0 1.08l-4.684 2.682a2.042 2.042 0 01-1.84 0l-5.044-2.922c-.44-.32-.48-.8 0-1.08zM394.917 743.666l-5.044-2.922c-.52-.32-.56-.76 0-1.08l4.683-2.682a2.042 2.042 0 011.842 0l5.043 2.922c.52.32.56.76 0 1.08l-4.683 2.682a2.042 2.042 0 01-1.841 0zM385.75 732.018l-4.683 2.682a2.042 2.042 0 01-1.842 0l-5.043-2.922c-.52-.32-.56-.76 0-1.08l4.683-2.682a2.042 2.042 0 011.841 0l5.044 2.922c.48.32.52.8 0 1.08zM386.91 739.143l-5.043-2.922c-.52-.32-.56-.76 0-1.08l4.684-2.682a2.042 2.042 0 011.84 0l5.045 2.922c.52.32.56.76 0 1.08l-4.684 2.682a2.042 2.042 0 01-1.841 0zM412.93 753.072l4.683-2.681a2.042 2.042 0 011.841 0l5.044 2.921c.52.32.56.761 0 1.081l-4.684 2.682a2.042 2.042 0 01-1.841 0l-5.044-2.922c-.44-.32-.48-.76 0-1.08zM397.398 744.106l4.684-2.681a2.042 2.042 0 011.841 0l5.044 2.922c.52.32.56.76 0 1.08l-4.684 2.682a2.042 2.042 0 01-1.841 0l-5.044-2.922c-.48-.12-.48-.8 0-1.08zM410.247 752.552l-5.043-2.922c-.52-.32-.56-.76 0-1.08l4.683-2.682a2.042 2.042 0 011.842 0l5.043 2.921c.52.32.56.761 0 1.081l-4.683 2.682a2.042 2.042 0 01-1.842 0zM358.65 721.772l4.684-2.682a2.042 2.042 0 011.841 0l5.044 2.922c.52.32.56.76 0 1.08l-4.683 2.682a2.042 2.042 0 01-1.842 0l-5.043-2.922c-.44-.32-.48-.8 0-1.08zM378.025 727.535l-4.684 2.682a2.042 2.042 0 01-1.841 0l-5.044-2.922c-.52-.32-.56-.76 0-1.08l4.684-2.682a2.042 2.042 0 011.84 0l5.045 2.922c.44.32.48.8 0 1.08zM341.919 720.25l4.683-2.681a2.042 2.042 0 011.841 0l5.044 2.922c.52.32.56.76 0 1.08l-4.683 2.682a2.042 2.042 0 01-1.842 0l-5.043-2.922c-.48-.28-.52-.8 0-1.08zM326.348 711.285l4.683-2.682a2.042 2.042 0 011.841 0l5.044 2.922c.52.32.56.76 0 1.08l-4.683 2.682a2.042 2.042 0 01-1.842 0l-5.043-2.922c-.44-.32-.48-.8 0-1.08zM334.113 715.728l4.764-2.682a2.042 2.042 0 011.84 0l5.044 2.922c.52.32.56.76 0 1.08l-4.683 2.682a2.042 2.042 0 01-1.841 0l-5.044-2.922c-.56-.32-.56-.8-.08-1.08zM380.746 742.665l4.684-2.681a2.042 2.042 0 011.841 0l5.044 2.922c.52.32.56.76 0 1.08l-4.684 2.682a2.042 2.042 0 01-1.841 0l-5.044-2.922c-.44-.32-.48-.8 0-1.08zM365.215 733.7l4.684-2.682a2.042 2.042 0 011.841 0l5.044 2.922c.52.32.56.76 0 1.08l-4.684 2.682a2.042 2.042 0 01-1.841 0l-5.044-2.922c-.48-.32-.52-.8 0-1.08zM372.94 738.182l4.684-2.681a2.042 2.042 0 011.842 0l5.043 2.922c.52.32.56.76 0 1.08l-4.683 2.682a2.042 2.042 0 01-1.842 0l-5.043-2.922c-.44-.32-.48-.8 0-1.08zM409.087 760.077l-5.044-2.922c-.52-.32-.56-.76 0-1.08l4.683-2.682a2.042 2.042 0 011.842 0l5.043 2.921c.52.32.56.761 0 1.081l-4.683 2.682a2.042 2.042 0 01-1.841 0zM393.556 751.071l-5.044-2.922c-.52-.32-.56-.76 0-1.08l4.683-2.682a2.042 2.042 0 011.842 0l5.043 2.922c.52.32.56.76 0 1.08l-4.683 2.682a2.042 2.042 0 01-1.841 0zM396.197 751.591l4.684-2.681a2.042 2.042 0 011.841 0l5.044 2.921c.52.32.56.761 0 1.081l-4.684 2.682a2.042 2.042 0 01-1.84 0l-5.045-2.922c-.48-.32-.52-.8 0-1.08zM354.888 728.736l-5.044-2.922c-.52-.32-.56-.76 0-1.08l4.684-2.682a2.042 2.042 0 011.841 0l5.044 2.922c.52.32.56.76 0 1.08l-4.684 2.682a2.042 2.042 0 01-1.841 0h0zM357.45 729.056l4.683-2.681a2.042 2.042 0 011.841 0l5.044 2.922c.52.32.56.76 0 1.08l-4.683 2.682a2.042 2.042 0 01-1.842 0l-5.043-2.922c-.44-.16-.48-.64 0-1.08zM336.155 726.054l-5.044-2.921c-.52-.32-.56-.761 0-1.081l4.683-2.682a2.042 2.042 0 011.842 0l5.043 2.922c.52.32.56.76 0 1.08l-4.683 2.682a2.042 2.042 0 01-1.841 0zM328.39 721.531l-5.044-2.921c-.52-.32-.56-.761 0-1.081l4.683-2.682a2.042 2.042 0 011.841 0l5.044 2.922c.52.32.56.76 0 1.08l-4.684 2.682a2.042 2.042 0 01-1.84 0zM374.902 748.47l-5.043-2.923c-.52-.32-.56-.76 0-1.08l4.683-2.682a2.042 2.042 0 011.841 0l5.044 2.922c.52.32.56.76 0 1.08l-4.683 2.682a2.042 2.042 0 01-1.842 0h0zM359.451 739.503l-5.043-2.922c-.52-.32-.56-.76 0-1.08l4.683-2.682a2.042 2.042 0 011.841 0l5.044 2.922c.52.32.56.76 0 1.08l-4.683 2.682a2.042 2.042 0 01-1.842 0zM367.217 743.946l-5.044-2.922c-.52-.32-.56-.76 0-1.08l4.684-2.682a2.042 2.042 0 011.84 0l5.044 2.922c.52.32.56.76 0 1.08l-4.683 2.682a2.042 2.042 0 01-1.841 0zM398.239 761.878l-5.044-2.922c-.52-.32-.56-.76 0-1.08l4.684-2.682a2.042 2.042 0 011.841 0l5.044 2.922c.52.32.56.76 0 1.08l-4.684 2.682a2.042 2.042 0 01-1.841 0zM409.967 769.323l5.044 2.922c.52.32.52.8 0 1.12l-5.284 3.043a2.162 2.162 0 01-1.961 0l-5.044-2.922c-.52-.32-.52-.8 0-1.12l5.284-3.043a2.162 2.162 0 011.961 0h0zM402.242 764.84l5.043 2.922c.52.32.52.8 0 1.12l-5.283 3.043a2.162 2.162 0 01-1.962 0l-5.123-2.842c-.52-.32-.52-.8 0-1.12l5.283-3.043a2.162 2.162 0 012.042-.08zM394.476 760.397l5.044 2.922c.52.32.52.8 0 1.12l-5.284 3.043a2.162 2.162 0 01-1.961 0l-5.044-2.922c-.52-.32-.52-.8 0-1.12l5.284-3.043a2.162 2.162 0 011.961 0zM328.47 722.292l5.043 2.922c.52.32.52.8 0 1.12l-5.284 3.043a2.162 2.162 0 01-1.961 0l-5.044-2.922c-.52-.32-.52-.8 0-1.121l5.284-3.042a2.162 2.162 0 011.961 0h0zM382.708 753.072l-5.044-2.922c-.52-.32-.56-.76 0-1.08l4.684-2.682a2.042 2.042 0 011.84 0l5.045 2.922c.52.32.56.76 0 1.08l-4.684 2.682a2.042 2.042 0 01-1.841 0zM391.834 750.75l5.044 2.923c.52.32.56.76 0 1.08l-4.683 2.682a2.042 2.042 0 01-1.842 0l-5.043-2.922c-.52-.32-.56-.76 0-1.08l4.683-2.682a2.042 2.042 0 011.841 0zM343.96 730.537l-5.043-2.922c-.52-.32-.56-.76 0-1.08l4.683-2.682a2.042 2.042 0 011.841 0l5.044 2.922c.52.32.56.76 0 1.08l-4.683 2.682a2.042 2.042 0 01-1.842 0zM353.127 728.376l5.043 2.922c.52.32.56.76 0 1.08l-4.683 2.682a2.042 2.042 0 01-1.841 0l-5.044-2.922c-.52-.32-.56-.76 0-1.08l4.683-2.682a2.042 2.042 0 011.842 0h0zM443.671 755.714l-5.043-2.922c-.52-.32-.56-.76 0-1.08l2.001-1.161a2.042 2.042 0 011.841 0l5.044 2.922c.52.32.56.76 0 1.08l-2.001 1.161a2.042 2.042 0 01-1.842 0zM435.506 750.99l-5.044-2.921c-.52-.32-.56-.76 0-1.08l2.001-1.161a2.042 2.042 0 011.842 0l5.043 2.921c.52.32.56.761 0 1.081l-2.001 1.16a2.042 2.042 0 01-1.841 0zM427.58 746.388l-5.044-2.922c-.52-.32-.56-.76 0-1.08l2.002-1.162a2.042 2.042 0 011.841 0l5.044 2.922c.52.32.56.76 0 1.081l-2.002 1.16a2.042 2.042 0 01-1.841 0h0zM419.414 741.705l-5.044-2.922c-.52-.32-.56-.76 0-1.08l2.002-1.162a2.042 2.042 0 011.841 0l5.044 2.922c.52.32.56.76 0 1.081l-2.002 1.16a2.042 2.042 0 01-1.841 0h0zM411.528 737.062l-5.043-2.922c-.52-.32-.56-.76 0-1.08l2.001-1.162a2.042 2.042 0 011.842 0l5.043 2.922c.52.32.56.76 0 1.081l-2.001 1.16a2.042 2.042 0 01-1.842 0zM403.363 732.419l-5.044-2.922c-.52-.32-.56-.76 0-1.081l2.001-1.16a2.042 2.042 0 011.842 0l5.043 2.921c.52.32.56.76 0 1.08l-2.001 1.162a2.042 2.042 0 01-1.841 0zM395.357 727.816l-5.044-2.922c-.52-.32-.56-.76 0-1.081l2.002-1.16a2.042 2.042 0 011.841 0l5.044 2.921c.52.32.56.76 0 1.08l-2.002 1.162a2.042 2.042 0 01-1.841 0zM387.191 723.092l-5.044-2.921c-.52-.32-.56-.76 0-1.081l2.002-1.16a2.042 2.042 0 011.841 0l4.924 3.121c.52.32.56.76 0 1.08l-2.002 1.162a2.042 2.042 0 01-1.721-.2h0zM379.265 718.49l-5.043-2.922c-.52-.32-.56-.761 0-1.081l2.001-1.161a2.042 2.042 0 011.842 0l5.043 2.922c.52.32.56.76 0 1.08l-2.001 1.161a2.042 2.042 0 01-1.842 0zM371.1 713.806l-5.044-2.922c-.52-.32-.56-.76 0-1.08l2.001-1.161a2.042 2.042 0 011.842 0l5.043 2.922c.52.32.56.76 0 1.08l-2.001 1.161a2.042 2.042 0 01-1.841 0zM363.214 709.243l-5.044-2.922c-.52-.32-.56-.76 0-1.08l2.002-1.161a2.042 2.042 0 011.841 0l5.044 2.922c.52.32.56.76 0 1.08l-2.002 1.161a2.042 2.042 0 01-1.841 0h0zM354.888 704.56l-5.044-2.922c-.52-.32-.56-.76 0-1.08l2.002-1.161a2.042 2.042 0 011.841 0l5.044 2.922c.52.32.56.76 0 1.08l-2.002 1.161a2.042 2.042 0 01-1.841 0zM346.882 699.917l-5.043-2.922c-.52-.32-.56-.76 0-1.08l2.001-1.161a2.042 2.042 0 011.841 0l5.044 2.922c.52.32.56.76 0 1.08l-2.001 1.161a2.042 2.042 0 01-1.842 0zM338.877 695.234l-5.044-2.922c-.52-.32-.56-.76 0-1.08l2.001-1.161a2.042 2.042 0 011.842 0l5.203 2.962c.52.32.56.76 0 1.08l-2.001 1.161a2.042 2.042 0 01-2.001-.04h0zM429.661 763.76l-8.846-5.084c-.52-.32-.56-.76 0-1.08l4.683-2.682a2.042 2.042 0 011.842 0l8.846 5.083c.52.32.56.76 0 1.08l-4.683 2.682a2.042 2.042 0 01-1.842 0zM422.616 767.842l-10.807-6.244c-.52-.32-.56-.76 0-1.08l4.683-2.683a2.042 2.042 0 011.841 0l10.808 6.245c.52.32.56.76 0 1.08l-4.683 2.682a2.042 2.042 0 01-1.842 0zM415.611 771.885l-14.81-8.566c-.52-.32-.56-.76 0-1.08l4.683-2.682a2.042 2.042 0 011.841 0l14.811 8.565c.52.32.56.76 0 1.081l-4.683 2.682a2.042 2.042 0 01-1.842 0h0zM384.83 754.793l6.964 4.003c.52.32.56.76 0 1.08l-5.524 3.203a2.042 2.042 0 01-1.84 0l-6.966-4.003c-.52-.32-.56-.76 0-1.08l5.524-3.203a2.042 2.042 0 011.841 0h0zM336.475 726.895l6.965 4.003c.52.32.56.76 0 1.08l-5.524 3.202a2.042 2.042 0 01-1.841 0l-6.965-4.002c-.52-.32-.56-.76 0-1.08l5.524-3.203a2.042 2.042 0 011.84 0zM331.391 692.632a2.042 2.042 0 011.842 0l9.086 5.244c.52.32.56.76 0 1.08l-4.683 2.682a2.042 2.042 0 01-1.842 0l-9.086-5.243c-.52-.32-.56-.76 0-1.08l4.683-2.683zM319.263 700.758l10.927 6.324c.52.32.56.76 0 1.08l-4.683 2.682a2.042 2.042 0 01-1.841 0l-10.928-6.324c-.52-.32-.56-.76 0-1.08l4.683-2.682a2.042 2.042 0 011.842 0zM312.258 704.8l14.61 8.526c.52.32.56.76 0 1.08l-4.683 2.683a2.042 2.042 0 01-1.842 0l-14.77-8.526c-.52-.32-.56-.76 0-1.08l4.683-2.683c.622-.35 1.38-.35 2.002 0h0zM317.061 719.89l5.044 2.922c.52.32.56.76 0 1.081l-1.882 1.08a2.042 2.042 0 01-1.841 0l-5.044-2.921c-.52-.32-.56-.76 0-1.08l1.882-1.082a2.042 2.042 0 011.841 0zM301.57 710.964l5.044 2.922c.52.32.56.76 0 1.081l-1.882 1.08a2.042 2.042 0 01-1.841 0l-5.044-2.921c-.52-.32-.56-.76 0-1.08l1.882-1.082a2.042 2.042 0 011.841 0zM312.978 713.326l5.044 2.922c.52.32.56.76 0 1.08l-5.524 3.203a2.042 2.042 0 01-1.842 0l-5.043-2.922c-.52-.32-.56-.76 0-1.08l5.524-3.203a2.042 2.042 0 011.841 0h0zM346.082 732.459l36.025 20.813c.52.32.56.76 0 1.081l-5.524 3.202a2.042 2.042 0 01-1.84 0l-36.027-20.813c-.52-.32-.56-.761 0-1.081l5.524-3.202a2.042 2.042 0 011.842 0zM371.62 759.876L327.028 734.1l-27.86 16.051 44.592 25.777z"/>
        <path stroke="#014242" stroke-width="2" d="M436.943 820.94l30.58 52.954 81.54-17.652-30.622-52.955zM301.471 1095.218V897.423l-.19-.778-16.672-9.626-54.944-32.13c-26.47-15.479-38.608-36.033-38.814-56.278M481.287 561.908c-18.512 10.4-45.765 25.997-81.756 46.79-6.146 3.552-11.597 7.356-16.35 11.357M530.21 473.165L230.9 645.287M481.766 560.88c71.598-40.896 108.207-63.192 109.825-66.889 3.19-7.29.024-15.36-9.523-21.054-14.352-8.575-37.795-8.575-52.248 0M591.862 494.045v277.748M591.954 771.793c0 5.088-2.255 9.084-6.766 11.989l-38.617 22.142M231.531 644.699h0c-53.987 31.19-54.29 81.962-.63 113.177M190.848 701.287v98"/>
        <g stroke="#014242" stroke-width="2">
          <path d="M150.222 880.232L99.617 909.34l-84.14-48.913.04-19.453 84.38 48.913 33.928-19.562m-34.168 19.562l-84.14-48.913 33.67-19.374M166.923 890.149l-.42 182.499 8.608 4.923.768-182.165M158.718 885.384l-50.415 28.799-.48 202.214-8.367 4.883.48-211.78 50.507-29.244m33.444 19.188l-.49 173.524-8.006 4.683.541-182.305"/>
          <path d="M99.136 1121.2l-8.606-4.964h0l.48-202.173-67.528-38.946-.48 202.054h0l-8.006-4.643h0l.4-212.141 84.22 48.953v-19.453"/>
          <path d="M31.928 1025.777v46.63h0l-8.806 4.764M32.289 880l-.28 125.803M90.65 1060.08l-67.528-39.547M90.69 1039.306l-58.681-33.503-8.847 5.164 67.488 39.186M166.624 1016.77l-58.762-34.422M107.902 972.742l58.722 34.062M166.664 995.997l-58.681-33.542"/>
        </g>
        <g>
          <path stroke="#014242" stroke-width="2.003" d="M856.713 274.21l180.746 103.466m473.753 261.152l146.294 77.051M858.62 274.759V1.908M856.64 274.759L653.882 389.218M1468.158 240.536v-9.229L1110.483 30.529v11.54M1512.058 663.878l-1.853-400.307-170.756-91.847v401.392zM1208.206 498.427l-1.853-400.307L1037.503.55v401.391z"/>
          <path stroke="#014242" stroke-width="2.003" d="M1199.978 483.606l-1.826-378.095-152.42-88.461v379.119z"/>
          <path stroke="#014242" stroke-width="1.908" d="M1175.738 399.163l-1.292-214.172-107.848-62.876v214.9z"/>
          <g fill="#014242" fill-rule="nonzero">
            <path d="M1113.05 263.966l-.034 9.42-8.196-4.733.023-9.42z"/>
            <path d="M1099.394 249.791l19.14 11.047-.058 21.991-19.15-11.047.068-21.99zm16.346 28.317l.046-15.711-13.667-7.884-.047 15.71 13.668 7.885M1135.838 277.126l-.034 9.42-8.196-4.733.023-9.43zM1154.724 236.99c2.821 1.611 4.03 4.163 4.03 7.387v10.075l-3.492-2.015v-8.866c0-2.149-.403-3.224-1.612-3.895-.94-.538-1.88-.672-2.821-.403v10.746l-3.493-2.015v-8.597c0-1.209 0-2.686-.268-6.045l2.82 1.21.538 2.283c1.209-.94 2.552-.806 4.298.134zM1142.366 223.422c1.21.672 1.88 2.015 1.88 3.224 0 1.343-.805 1.88-2.148 1.075-1.21-.672-1.881-1.88-1.881-3.224.134-1.343.94-1.746 2.15-1.075zM1140.352 243.974l.134-14.776 3.493 2.015v14.776zM1128.128 221.676c2.82 1.612 4.03 4.164 4.03 7.388v10.074l-3.493-2.014v-8.866c0-2.15-.403-3.224-1.612-3.895-.94-.538-1.88-.672-2.82-.403v10.746l-3.493-2.015v-8.597c0-.672 0-1.612-.135-2.821l-.134-3.224 2.82 1.21.538 2.283c1.21-.94 2.552-.94 4.299.134zM1118.456 215.094v3.224c-.672-.403-1.477-.672-2.15-.94.538 1.209.807 2.283.807 3.358 0 3.09-2.15 4.298-5.776 2.149-.269-.134-.672-.403-.94-.537a1.026 1.026 0 00-.27.671c0 1.075.807 1.747 2.15 2.552l.672.403c3.224 2.015 4.97 4.433 4.97 7.12 0 3.492-2.821 4.03-6.985 1.612-3.224-1.88-5.642-4.702-5.642-7.523 0-1.612.94-2.417 2.15-2.686 0-.537-.135-1.075-.135-1.746 0-1.075.537-1.747 1.343-2.015-1.612-1.747-2.418-3.896-2.418-5.776 0-2.955 2.015-4.567 5.642-2.418 1.075.671 2.015 1.343 2.687 2.283 1.074-.537 2.418-.537 3.895.269zm-6.85 13.164c-.672-.403-1.344-.806-2.015-1.343-.672.268-.94.806-.94 1.477 0 1.344 1.208 2.687 3.089 3.761 1.209.672 2.015.94 2.552.806.403-.134.672-.403.672-1.074 0-1.343-1.344-2.418-3.224-3.493l-.135-.134m.135-7.925c1.343.806 2.149.268 2.149-1.344 0-1.611-.672-3.089-2.15-3.895-1.342-.806-2.148-.269-2.148 1.343s.671 2.955 2.149 3.896M1102.068 200.184c1.21.671 1.88 2.015 1.88 3.224 0 1.343-.805 1.88-2.014 1.074-1.209-.671-2.015-2.015-2.015-3.224 0-1.343.806-1.88 2.15-1.074zM1100.054 220.601V205.96l3.627 2.015-.135 14.642zM1092.8 204.617c2.552 2.686 4.836 5.373 4.836 8.865 0 4.164-3.09 4.433-6.985 2.284-2.418-1.344-4.568-3.493-5.91-5.24l1.074-2.417c1.343 1.612 3.09 3.09 4.701 4.03 1.88 1.074 3.358 1.209 3.358-.537 0-1.612-1.209-2.956-2.955-4.702l-.403-.403c-2.552-2.686-5.239-5.373-5.239-9.268 0-4.165 3.224-4.299 6.851-2.284 1.88 1.075 3.761 2.687 5.105 4.299l-.94 2.283c-1.075-1.075-2.553-2.283-4.03-3.09-1.612-.94-3.224-1.343-3.224.538 0 1.477 1.074 2.686 2.552 4.298l1.209 1.344zM1127.573 292.283l-.012 3.14-2.724-1.57-.023 6.28 2.736 1.581-.012 3.14-2.736-1.58-.011 6.29 2.736 1.57-.012 3.151-5.471-3.163.057-21.99zM1132.987 314.297l-.012 3.14-2.724-1.582v-3.14zM1135.757 303.307v3.14l-2.735-1.58-.012 3.138 2.736 1.582-.012 3.14-5.471-3.152.023-9.43zM1135.78 297.016l-.011 3.151-5.472-3.163.012-3.14z"/>
            <path d="M1122.182 262.94l19.139 11.047-.058 21.99-19.15-11.035.069-22.003zm16.357 28.328l.046-15.711-13.68-7.896-.045 15.71 13.679 7.897M1112.97 290.147l-.023 9.432-8.207-4.745.034-9.42z"/>
            <path d="M1099.314 275.972l19.15 11.048-.057 21.99-19.151-11.047.058-21.99zm16.357 28.328l.046-15.71-13.668-7.896-.046 15.71 13.668 7.896M1141.252 300.18l-.011 3.14-2.736-1.583.01-3.14zM1141.229 307.51l-.046 14.66-5.472-3.152.012-3.14 2.736 1.57.034-11.52z"/>
          </g>
          <path stroke="#014242" stroke-width="2.003" d="M1503.83 648.217l-1.825-378.095-154.33-82.737v379.119z"/>
        </g>
        <g>
          <path fill="#013939" fill-rule="nonzero" d="M1363.116 802.583c36.952 21.958 37.164 57.68.446 79.638-36.719 21.958-96.67 21.958-133.643 0-36.952-21.958-37.164-57.68-.446-79.638 36.74-21.958 96.69-21.958 133.643 0zm-51.843 41.775l-22.496 8.417c-5.196 2.23-8.337 4.944-9.377 8.049-.762 2.345.023 4.024.046 4.116.347 1.035 1.317 2.139 2.91 3.058 1.525.897 3.65 1.61 6.375 1.91 9.377 1.08 20.301-3.29 30.002-12.005l9.7-9.958-17.16-3.587zm21.577-8.074c-3.374-1.744-8.506-1.529-11.434.454l-7.381 4.993 16.144 3.655 3.467-2.34c2.812-1.912 2.601-4.779-.398-6.547a6.131 6.131 0 00-.398-.215zm-32.582-22.737l-17.517 5.667c-15.334 5.643-23.036 12.03-21.134 17.488.54 1.58 1.808 2.81 3.382 3.716 1.62.93 3.569 1.486 5.518 1.719.023 0 3.005.464 7.115 0 5.447-.604 10.214-2.462 14.159-5.481l14.793-13.122-6.316-9.987zm18.312-3.789c-3.011-1.708-7.858-1.824-11.105-.208l-3.976 1.986 6.258 9.21 8.47-4.224c3.365-1.685 3.694-4.617.73-6.533-.118-.07-.235-.162-.377-.23z"/>
          <g transform="translate(1247.862 349.172)">
            <mask id="d" fill="#fff">
              <use xlink:href="#c"/>
            </mask>
            <path fill="#013939" fill-rule="nonzero" d="M107.988 38.11c21.276 12.655 21.398 33.24.257 45.894-21.14 12.654-55.658 12.654-76.946 0-21.275-12.654-21.397-33.24-.257-45.893 21.153-12.654 55.67-12.654 76.946 0zm-28.86 25.317l-13.266 4.846c-3.065 1.284-4.917 2.846-5.53 4.634-.45 1.35.013 2.317.027 2.37.204.596.776 1.231 1.716 1.76.9.517 2.152.928 3.76 1.1 5.53.622 11.972-1.894 17.693-6.912l5.72-5.733-10.12-2.065zm12.725-4.65c-1.99-1.003-5.016-.88-6.743.262l-4.353 2.875 9.521 2.105 2.045-1.348c1.658-1.1 1.534-2.751-.235-3.77a3.645 3.645 0 00-.235-.123zm-19.215-13.09l-10.33 3.263c-9.043 3.249-13.585 6.926-12.464 10.069.319.909 1.067 1.618 1.995 2.14.955.534 2.104.855 3.254.989.014 0 1.772.267 4.196 0 3.213-.348 6.024-1.418 8.35-3.156l8.724-7.555-3.725-5.75zm10.8-2.182c-1.776-.983-4.634-1.05-6.55-.12l-2.344 1.144 3.69 5.303L83.23 47.4c1.984-.97 2.178-2.659.43-3.762-.07-.04-.139-.093-.222-.133z" mask="url(#d)"/>
          </g>
          <path fill="#013939" fill-rule="nonzero" d="M1276.935 577.342c27.248 16.748 27.404 43.994.33 60.741-27.076 16.748-71.282 16.748-98.545 0-27.248-16.747-27.404-43.993-.33-60.74 27.092-16.748 71.298-16.748 98.545 0zm-26.516 25.047l-11.754 4.274-1.469 11.62c-.133 2.805 1.336 5.076 4.14 6.812l.268.267c2.003 1.202 3.873 1.603 4.007 1.603 1.202.4 2.804.534 4.54.4h.134c1.737-.133 3.34-.534 4.942-1.335 3.873-1.87 5.21-5.21 4.14-9.483-.534-1.87-1.469-4.007-2.938-6.278l-6.01-7.88zm-45.011-8.147l-2.003 8.548c-.935 6.41 1.068 11.22 5.61 13.757.934.534 2.003 1.068 3.205 1.336 3.873.934 7.613.4 9.75-.668 0 0 1.87-.802 3.205-2.404 1.87-2.137 2.004-4.542.668-7.213l-7.079-10.952-13.356-2.404zm39.935-1.069c-1.335-.801-3.339-1.202-5.342-.935-3.206.401-5.209 2.271-4.541 4.14l1.736 4.676 10.552-3.874-.802-2.27a3.343 3.343 0 00-1.603-1.737zm-34.86-10.15c-3.205.133-5.61 1.736-5.342 3.606l.267 2.27 11.887 2.004-.668-4.675c-.133-.801-.667-1.603-1.602-2.137l-.268-.134c-1.068-.667-2.67-.934-4.274-.934z"/>
        </g>
        <g stroke="#014242">
          <path stroke-width="2.003" d="M628.662 829.681c.118-39.563-28.088-87.927-62.883-107.792h0c-34.78-19.882-63.188-3.872-63.29 35.69"/>
          <path stroke-width="2.003" d="M632.685 825.658c.118-39.563-28.088-87.927-62.883-107.792h0c-34.779-19.882-63.188-3.873-63.29 35.69"/>
          <path stroke-width="2.003" d="M502.504 756.1l-36.16-20.898m-37.034-317.34l1.936 1.055 249.72 143.767v296.555l-52.707-30.46"/>
          <path stroke-width="2.003" d="M506.527 752.077l-39.36-22.748m-30.471-312.993L684.989 558.66v296.556l-52.706-30.46M575.276 475.103V219.425M578.885 220.936v256.487M388.287 362.132v257.983"/>
          <path stroke-width="2" d="M578.7 222.243l-139.192 80.916M439.508 303.159c-58.235 31.19-60.694 81.962-2.812 113.177M573.122 219.066l-144.324 84.093M428.798 303.159c-53.987 31.19-53.147 83.488.512 114.703M575.263 475.417l-141.73 81.504M434.219 556.929c-32.15 17.218-46.65 40.405-43.451 62.975M578.734 477.964l-147.255 84.681"/>
          <path stroke-width="2" d="M431.573 562.653c-25.13 15.476-37.86 35.772-38.161 56.109-.03 2.04-.148 3.126-.355 3.261"/>
          <path stroke-width="2.003" d="M485.931 525.892l36.11 134.482M453.745 525.892l36.11 134.482M453.745 461.518l64.373 237.378M608.667 520.897l36.11 134.482M628.57 548.788l36.11 134.483M494.184 354.897l22.734 84.874M465.563 360.62l30.529 106.851M465.563 305.287l51.517 190.805"/>
        </g>
        <g>
          <path fill="#FFCDB8" d="M208.406 703.987c3.528 4.347 6.55 6.208 12.374 6.208 3.883 0 29.123 1.942 75.72 5.825l1.456 16.017-79.175 3.643c-10.23 3.615-21.603.342-28.412-8.176l-29.978-36.776 17.039-24.217 30.976 37.476z"/>
          <path fill="#FFCDB8" d="M278.57 714.88s31.984-14.172 51.7 16.866l8.458 12.864-5.658 2.717-19.439-18.281s-1.244 32.361-38.973 4.09l3.912-18.256"/>
          <path fill="#014242" d="M181.414 1009.14c6.229 3.597 39.92 28.006 50.396 30.447 10.48 2.458 15.162-6.444 10.493-11.95-.361-.423-.79-.846-1.27-1.272-5.66-5.025-18.587-10.192-19.098-26.468a8.448 8.448 0 00-.18-1.576c-2.937-14.962-41.88 1.826-41.88 1.826s-4.68 5.403 1.539 8.994M83.63 1023.174c-4.336-6.862 10.712-13.172 10.712-13.172l10.218-9.383 21.933 10.94c-6.743 5.69-3.274 20.466 0 30.573 1.197 3.695 4.848 15.976 4.735 18.266-.387 7.756-14.114 9.151-21.114-2.185"/>
          <path fill="#1157B8" d="M51.909 781.684c-7.3 33.225 3.128 54.496 31.28 63.814 28.152 9.317 45.794 24.895 52.925 46.734l-34.497 106.533c-3.073-.169-5.58.96-7.521 3.387-1.942 2.427-2.536 5.563-1.782 9.407l30.905 20.37c9.473-1.907 15.54-5.037 18.202-9.391 2.66-4.354 1.205-7.751-4.369-10.193 32.548-74.749 48.822-118.19 48.822-130.325-.998-7.28-8.522-22.738-22.57-46.373l27.625 37.636v111.395c-3.355 1.175-5.539 2.851-6.552 5.03-1.013 2.178-2.487 5.84-4.421 10.988l44.39 6.846c4.904-8.807 7.356-14.751 7.356-17.834s-2.452-4.314-7.356-3.692c12.433-92.601 17.554-142.192 15.364-148.772-20.832-25.725-51.168-45.778-91.009-60.158l-96.792 4.598z"/>
          <path fill="#014242" d="M118.252 634.44s37.132-6.193 51.563 10.229l18.93 29.986c-.17 8.423-1.855 14.852-5.055 19.286-3.284 4.55-15.125 13.277-17.001 10.84-4.711-6.122-8.037-11.113-9.979-14.972l-17.069 62.964c8.137 16.816 10.928 26.453 8.373 28.91-15.267 14.688-67.607 27.906-75.906 22.934-10.383-6.22-16.146-23.372-14.416-35.812 1.73-12.44 8.737-74.864 8.737-74.864s-16.008 1.587-18.93-4.882c0 0 2.36-43.091 31.53-46.74l24.563-11.86 14.66 3.981z"/>
          <path fill="#FFCDB8" d="M80.019 701.196l-22.275 35.91a15.147 15.147 0 00.42 16.072l30.01 58.505-12.88 10.022-44.779-63.025c-7.357-8.646-8.382-20.902-2.562-30.614l20.233-38.257 31.833 11.387z"/>
          <path fill="#1157B8" d="M96.49 804.654s-51.226 19.731 2.588 39.063l8.327-9.574-6.503-29.603-4.411.114z"/>
          <path fill="#014242" d="M48.227 689.81l29.164 19.293L95.57 685.23l-29.099-1.61z"/>
          <g>
            <path fill="#FFCDB8" d="M134.74 616.148l-1.436 13.249-.92 8.402s-20.213 20.778-32.191-5.432v-15.8l1.186-8.71 33.361 8.291z"/>
            <path fill="#EEA0A0" d="M134.74 615.83l-1.647 15.846c-14.556 2.721-25.238-4.366-32.9-13.218l1.186-11.282 33.361 8.654z"/>
            <path fill="#FFCDB8" d="M72.206 579.309s-16.966.23-21.984-11.51c-5.018-11.739 5.735-16.227 17.205-5.754 11.47 10.473 4.78 17.264 4.78 17.264"/>
            <path fill="#FFCDB8" d="M172.867 552.13s0 47.421-22.021 61.877c-19.873 13.046-50.928 18.329-76.782-22.24-25.856-40.57 0-94.195 0-94.195l88.646-8.86 10.157 63.418z"/>
            <path fill="#014242" fill-rule="nonzero" d="M142.564 592.868a1.725 1.725 0 012.388-.335c.753.555.905 1.605.34 2.345-.551.723-1.546 1.735-2.971 2.739-5.687 4.005-12.8 4.005-20.593-2.465a1.655 1.655 0 01-.202-2.36 1.726 1.726 0 012.403-.199c6.554 5.442 11.944 5.442 16.405 2.3a12.41 12.41 0 001.701-1.439c.278-.283.456-.49.53-.586z"/>
            <path fill="#014242" d="M153.216 510.166s-12.91 36.444-27.675 45.231c-1.422.846-3.195.872-4.694.17-3.198-1.5-3.926-5.695-1.4-8.147 3.132-3.04 6.633-6.941 7.667-10.04.28-.843-.822-1.464-1.418-.801-4.164 4.623-16.196 16.02-30.823 12.285-1.407-.36-2.462-1.522-2.753-2.93a3.83 3.83 0 012.496-4.385c6.396-2.256 20.467-8.011 23.73-15.937.268-.647-.437-1.271-1.062-.947L97.13 535.138a18.299 18.299 0 00-6.672 5.922c-.379.556-.75 1.115-1.161 1.649l-22.913 29.745s-19.511-10.396-10.095-62.288c9.417-51.892 93.405-29.653 93.405-29.653s57.269-10.887 38.434 64.402c0 0-6.506 17.617-16.08 25.673 0 0 3.556-43.742-18.832-60.422"/>
            <path fill="#014242" d="M151.219 478.457s11.197-6.72 9.14-8.978c-2.056-2.259-10.294 7.003-10.294 7.003s-4.294-11.973-9.283-10.844c-4.99 1.13 6.266 16.265 6.266 16.265l4.17-3.446z"/>
            <path fill="#EEA0A0" d="M133.387 585.227c-.09.846.569 1.574 1.38 1.521l5.832-.377c1.23-.08 1.99-1.437 1.457-2.602l-5.922-12.964c-.287-.628-1.181-.47-1.254.223l-1.493 14.199z"/>
            <path fill="#014242" d="M102.012 565.422c-.091-.058-.183-.116-.274-.176-.606-.329-.482-2.003.665-3.063 3.104-2.905 7.936-2.547 10.54.595.965 1.165.826 2.61.158 2.746-.103.03-.205.062-.308.095-.67.157-1.469-.41-2.048-1.023-1.646-1.856-4.682-2.049-6.613-.1-.666.649-1.514 1.257-2.12.926"/>
            <path fill="#014242" d="M109.486 571.115c-.718-2.298-1.169-5.662.747-8.69.777-1.228 2.477-1.133 3.112.188 1.012 2.104 1.807 5.484-.698 9.066-.876 1.254-2.694.928-3.16-.564M145.586 562.018a18.569 18.569 0 01-.274-.176c-.608-.329-.482-2.003.665-3.063 3.104-2.905 7.936-2.547 10.539.595.966 1.165.826 2.61.158 2.745l-.307.095c-.67.158-1.47-.409-2.048-1.023-1.646-1.855-4.683-2.048-6.613-.098-.665.648-1.515 1.255-2.12.925"/>
            <path fill="#014242" d="M153.06 569.753c-.72-2.297-1.17-5.662.746-8.69.777-1.227 2.477-1.133 3.112.188 1.012 2.104 1.807 5.485-.698 9.067-.876 1.253-2.694.927-3.16-.565"/>
          </g>
          <g>
            <path fill="#FFF" fill-rule="nonzero" d="M101.138 590.847l-40.8-31.131c.06-.075-.346-.886-1.216-2.433l4.212 1.714 38.927 30.412-1.123 1.438zM91.693 612.025l-21.622-30.412h1.242l21.871 29.293z"/>
            <g transform="matrix(-1 0 0 1 174.69 583.35)">
              <mask id="f" fill="#fff">
                <use xlink:href="#e"/>
              </mask>
              <use fill="#FFF" xlink:href="#e"/>
              <g mask="url(#f)">
                <path fill="#D4D3D3" d="M81.981 5.93c-1.763 7.784 1.322 15.568 9.256 23.351-11.46 12.108-25.123 18.162-40.99 18.162-23.801 0-38.347-9.08-43.636-22.053C3.085 16.74.881 9.39 0 3.336 14.986-1.854 42.313-.988 81.981 5.93z"/>
                <path fill="#E5E5E5" d="M75.423 4.866c-1.622 6.387 1.216 12.773 8.515 19.16-10.543 9.934-23.113 14.902-37.711 14.902-21.897 0-35.279-7.451-40.145-18.096C2.838 13.736.811 7.704 0 2.737 13.787-1.52 38.928-.81 75.423 4.866z"/>
                <path fill="#F9F7F7" d="M75.423 3.65c-1.622 4.79 1.216 9.58 8.515 14.37-10.543 7.45-23.113 11.176-37.711 11.176-21.897 0-35.279-5.588-40.145-13.572C2.838 10.302.811 5.778 0 2.053 13.787-1.14 38.928-.608 75.423 3.649z"/>
                <path fill="#FFF" d="M75.423 2.28c-1.622 2.995 1.216 5.988 8.515 8.982-10.543 4.657-23.113 6.985-37.711 6.985-21.897 0-35.279-3.492-40.145-8.482C2.838 6.44.811 3.611 0 1.283 13.787-.713 38.928-.38 75.423 2.281z"/>
              </g>
            </g>
          </g>
        </g>
        <g>
          <path fill="#013939" fill-rule="nonzero" d="M1077.839 1014.772c17.878 2.835 33.51 9.912 47.468 18.03 53.748 31.263 54.057 82.122.649 113.384-53.409 31.262-140.61 31.262-194.39 0-53.748-31.262-54.057-82.121-.648-113.383 12.146-7.106 26.155-12.445 40.883-16.472 39.463-10.79 71.9-6.975 106.038-1.56zm-80.27-3.441c17.342-2.282 35.31-2.586 52.835-.912 26.302 2.513-79.03 4.359-52.834.912z"/>
          <g transform="matrix(-1 0 0 1 1100.943 513.264)">
            <path fill="#FFCDB8" d="M230.878 244.691l-54.266 36.507c-2.326 2.398-5.862 2.16-7.938-.534l-47.315-46.014 25.271-20.621s29.454 38.137 29.982 37.569c.526-.567 34.533-13.813 36.506-15.787 1.973-1.973 19.733 2.96 17.76 8.88z"/>
            <rect width="32.56" height="65.119" x="225.057" y="190.621" fill="#014242" rx="4.933" transform="rotate(38 241.337 223.18)"/>
            <rect width="27.626" height="57.226" x="227.524" y="194.567" fill="#FFF" rx=".987" transform="rotate(38 241.337 223.18)"/>
            <rect width="19.733" height="11.84" x="240.431" y="203.266" fill="#014242" rx="1.973" transform="rotate(38 250.298 209.185)"/>
            <path fill="#014242" d="M241.548 204.352l6.22 4.86-11.08 1.36z"/>
            <rect width="19.733" height="11.84" x="231.661" y="219.911" fill="#014242" rx="1.973" transform="rotate(38 241.528 225.83)"/>
            <path fill="#014242" d="M248.153 233.461l-6.997-5.467 2.137 11.688z"/>
            <path fill="#0F1818" d="M66.106 318.464s37.348 27.561 38.48 25.799c1.132-1.763 23-10.06 23-10.06l2.653-87.92-4.304-41.058-35.836 20.235-23.993 93.004z"/>
            <path fill="#D6274D" d="M63.84 98.666s2.427 20.777-21.23 27.873-22.292 28.615-11.374 43.953c10.919 15.337-7.556 27.928-7.556 27.928s34.608 10.173 36.217-38.459c1.61-48.632 22.982-55.856 22.982-55.856l-19.04-5.44z"/>
            <path fill="#398989" d="M43.075 546.9l23.132-202.39h34.698l18.686 91.365a40.633 40.633 0 01-.786 19.465L88.12 559.435l18.87-.917L141.008 459a71.269 71.269 0 002.314-39.184l-24.46-109.395-79.438-11.465L26.64 550.57l16.435-3.669z"/>
            <path fill="#FFCDB8" d="M122.346 190.018l-18.523 24.087-32.784-40.764 13.059-9.263.173-17.334.128-13.545 29.441 11.117v29.646z"/>
            <path fill="#FFF" d="M82.623 165.759s-3.547 17.895 11.635 28.456 24.352-2.296 20.395-20.203c0 0 12.709 31.453 11.567 55.1l-7.789 5.676a16.857 16.857 0 00-6.79 15.623l7.273 60.893s-25.74 23.25-71.619-7.736l7.391-89.762h-7.39l-7.83-23.877s18.51-16.735 43.157-24.17"/>
            <path fill="#014242" d="M114.452 174.639s19.126 57.303 8.5 170.691l19.127-25.648s-1.518-110.6-27.627-145.043M81.893 163.785s-.618 11.751-1.988 29.64L79.306 201a1550.63 1550.63 0 01-1.997 22.516c-.244 2.59-.507 5.225-.77 7.907a1237.162 1237.162 0 01-2.769 24.985 809.15 809.15 0 01-.79 6.396 932.97 932.97 0 01-2.83 20.654h-.01c-.39 2.664-.799 5.309-1.225 7.926-1.361 8.516-2.85 16.783-4.465 24.57a418.6 418.6 0 01-1.361 6.286c-1.289 5.76-2.668 11.198-4.12 16.184l-7.959-4.396-7.996-4.424-14.529-8.036-7.732-4.277-.853-.47-.01-.009-5.09-2.811 1.026-4.1 6.933-27.743 1.724-6.893 5.962-23.861 1.37-5.475 7.651-30.625.354-1.438 1.597-6.368 5.545-22.183 1.389-5.567.862-.415 1.243-.59 6.661-3.17 16.572-7.88 6.343-3.023 1.842-.875c.01-.01.019-.01.019-.01"/>
            <path fill="#014242" d="M81.893 164.772l-4.37 15.645-.02.075-3.268 11.644-1.922 6.872-1.284 4.605-4.443 2.77-13.048 8.13-4.39 2.732-2.486 1.557-3.55 2.21-1.22-1.324-2.569-2.798-2.686-2.918-11.082-12.046-1.875-2.041c6.337-6.238 12.556-11.394 18.43-15.655a139.443 139.443 0 016.055-4.158c.838-.56 1.666-1.09 2.486-1.595h.009a134.913 134.913 0 016.802-3.971c6.629-3.608 12.301-5.958 16.508-7.44 2.696-.942 4.781-1.539 6.138-1.884a27.508 27.508 0 011.766-.4c.01-.01.019-.01.019-.01M114.452 174.639s17.29 16.653 31.573 39.362c0 0-3.56 10.474-17.891 17.864 0 0-5.864-42.542-13.682-57.226"/>
            <path fill="#FFF" d="M22.476 560.837l-3.564-15.925c-.938-4.188 2.23-8.17 6.502-8.17h17.372c5.634 0 9.27 5.997 6.686 11.031l-9.02 17.582-17.976-4.518zM166.745 586.075l-39.504-1.593-51.268-2.068 6.708-13.236a25.085 25.085 0 001.352-19.47l-2.914-8.486 3.767-.576c8.742-1.337 16.757 5.116 17.41 14.004l5.302-9.327c3.849-6.764 12.163-9.465 19.207-6.234l-16.339 23.8h19.943c3.84 0 7.598.549 11.183 1.593 10.893 3.185 20.143 10.938 25.153 21.593"/>
            <path fill="#EEA0A0" d="M114.452 144.504v25.201c-16.5-3.646-25.114-14.235-29.6-22.733l.128-13.773 29.472 11.305z"/>
            <path fill="#FFCDB8" d="M153.919 88.8c0 35.42-13.655 64.132-40.04 64.132-26.384 0-47.773-28.713-47.773-64.132 0-35.42 21.389-64.134 47.774-64.134 26.384 0 40.039 28.714 40.039 64.134"/>
            <path fill="#EEA0A0" d="M118.978 94.212c-.716 7.07-.676 12.366-.373 16.168.483 6.068 6.16 8.297 8.67 3.273 1.778-3.56 1.666-9.815-4.601-20.792-1.13-1.98-3.443-1.146-3.696 1.35"/>
            <path fill="#D6274D" d="M65.98 86.826s29.218-32.05 31.039-53.85l-2.976 26.62c-.384 3.44 1.763 6.651 5.068 7.584 3.325.94 6.825-.706 8.26-3.872 3.36-7.42 11.66-20.724 11.66-30.216 0 0 3.645 13.224 3.94 24.438.14 5.317 1.695 9.497 6.96 9.15a9.235 9.235 0 005.72-2.498c7.083-6.657 28.676-31.57 3.256-51.398-45.303-35.338-92.3 10.254-92.533 44.058-.181 26.389 19.606 29.984 19.606 29.984"/>
            <path fill="#014242" d="M91.72 86.536a12.21 12.21 0 01-.584-.878c-.343-.505.278-1.842 1.5-2.483 4.868-2.59 10.897-.303 12.658 4.164.456 1.14.037 2.072-.562 1.964a11.019 11.019 0 00-1.052-.075c-.603-.045-1.187-.607-1.519-1.22-1.29-2.596-5.304-3.99-8.468-1.844-.746.51-1.599.844-1.973.372"/>
            <path fill="#014242" d="M98.1 97.337c-.059-2.878.57-6.871 3.879-9.6 1.342-1.107 3.321-.37 3.617 1.368.473 2.768.248 6.906-3.951 10.048-1.469 1.1-3.507.054-3.545-1.816M131.484 86.783c-.206-.283-.4-.576-.584-.879-.343-.504.28-1.843 1.499-2.482 4.87-2.59 10.899-.302 12.66 4.164.455 1.14.035 2.073-.563 1.964a11.02 11.02 0 00-1.051-.074c-.604-.047-1.186-.606-1.52-1.22-1.29-2.597-5.303-3.99-8.468-1.844-.748.508-1.597.844-1.973.371"/>
            <path fill="#014242" d="M137.864 97.585c-.059-2.879.57-6.872 3.879-9.6 1.342-1.108 3.321-.37 3.617 1.367.473 2.769.248 6.907-3.951 10.048-1.469 1.1-3.508.054-3.545-1.815"/>
            <path fill="#014242" fill-rule="nonzero" d="M78.458 88.306c0 10.343 8.385 18.728 18.728 18.728 10.343 0 18.728-8.385 18.728-18.728 0-10.343-8.385-18.728-18.728-18.728-10.343 0-18.728 8.385-18.728 18.728zm-2.485 0c0-11.716 9.497-21.213 21.213-21.213 11.715 0 21.213 9.498 21.213 21.213 0 11.715-9.498 21.213-21.213 21.213-11.716 0-21.213-9.498-21.213-21.213zM125.818 85.346c0 10.343 8.384 18.728 18.727 18.728s18.728-8.385 18.728-18.728c0-10.343-8.385-18.728-18.728-18.728-10.343 0-18.727 8.385-18.727 18.728zm-2.486 0c0-11.716 9.498-21.213 21.213-21.213 11.716 0 21.214 9.498 21.214 21.213 0 11.715-9.498 21.213-21.214 21.213-11.715 0-21.213-9.497-21.213-21.213z"/>
            <path fill="#014242" fill-rule="nonzero" d="M124.319 84.853v1.58h-6.907v-1.58zM78.933 83.039l-.145 2.8-17.615-1.146.145-2.8z"/>
            <path fill="#FFCDB8" d="M56.45 99.916c-5.534-5.726-6.801-13.358-2.83-17.045 3.97-3.687 11.675-2.034 17.209 3.692 5.534 5.726 6.8 13.357 2.83 17.044-3.97 3.688-11.675 2.035-17.209-3.691"/>
            <path fill="#014242" fill-rule="nonzero" d="M109.709 120.172a1.124 1.124 0 01.366-1.592c.56-.342 1.304-.185 1.662.351.068.102.226.31.471.59.42.48.922.96 1.502 1.408 3.975 3.069 9.047 3.069 15.529-2.252a1.24 1.24 0 011.697.125 1.12 1.12 0 01-.13 1.625c-7.375 6.054-13.74 6.054-18.606 2.297a13.033 13.033 0 01-1.835-1.72 8.567 8.567 0 01-.656-.832z"/>
            <path fill="#FFCDB8" d="M46.467 282.323L27.084 250.96c-1.758-2.843-3.52-7.895-1.431-10.446l17.926-20.455-19.493-20.754-15.448 16.237c-10.644 11.19-11.571 29.656-2.113 42.088l32.788 43.096s-13.248-1.353-18.882 18.931L6.582 317.85c-1.924-.251-3.814 1.092-4.206 3.198-.419 2.249.855 4.356 2.774 4.856l25.331 6.6s10.877-5.645 17.334-18.217c5.144-10.015 4.528-22.457-1.348-31.964"/>
            <path fill="#D2D2D2" d="M89.786 570.782a6.413 6.413 0 1112.826 0 6.413 6.413 0 11-12.826 0M166.745 586.075l-38.48-1.601c3.307-9.772 8.957-16.122 13.98-20.106 10.61 3.202 19.62 10.996 24.5 21.707"/>
            <path fill="#D2D2D2" d="M75.973 582.128v6.96l90.772 1.92v-5.04z"/>
            <path fill="#FFF" d="M49.666 589.377s-44.092 8.843-43.744-5.975a19.94 19.94 0 01.586-4.385c2.804-11.38 14.667-17.87 15.95-18.54l-.962-.055h1.072s-.037.018-.101.055l17.81 1.094c6.696 5.34 9.096 12.078 9.792 17.584.742 5.791-.403 10.222-.403 10.222"/>
            <path fill="#D2D2D2" d="M49.666 589.408s-44.092 8.739-43.744-5.905a19.49 19.49 0 01.586-4.334c8.786-6.486 27.283-16.297 43.561.136.742 5.724-.403 10.103-.403 10.103"/>
            <path fill="#FFCDB8" d="M214.353 224.777l3.946-6.604c8.176-.727 12.76-.229 13.748 1.495 1.484 2.587 1.405 6.943-1.641 6.127-2.031-.544-5.69-.43-10.976.342l-7.54 7.83 2.463-9.19zM264.382 221.916c-3.942-1.952-6.743-2.702-8.405-2.252-2.492.676-5.568 5.84-.899 7.092 4.67 1.25 8.143 3.229 8.928.297.524-1.955.65-3.667.376-5.137z"/>
            <path fill="#FFCDB8" d="M261.923 229.13c-3.708-2.364-6.408-3.448-8.1-3.25-2.538.297-6.11 4.724-1.61 6.53s7.742 4.132 8.817 1.488c.717-1.763 1.015-3.352.893-4.768z"/>
            <path fill="#FFCDB8" d="M258.23 235.29c-3.709-2.364-6.408-3.447-8.1-3.25-2.539.297-6.11 4.725-1.61 6.53 4.5 1.806 7.741 4.132 8.817 1.488.717-1.762 1.014-3.351.892-4.767z"/>
            <path fill="#FFCDB8" d="M253.66 241.218c-3.032-2.184-5.267-3.144-6.704-2.878-2.156.399-5.356 4.925-1.63 6.524 3.724 1.599 6.365 3.764 7.383 1.105.679-1.773.996-3.356.952-4.751z"/>
          </g>
          <path fill="#FFF" fill-rule="nonzero" d="M1008.234 628.908l33.924-31.445c-.049-.077.288-.896 1.012-2.458l-3.502 1.731-32.368 30.72.934 1.452zM1016.088 650.3l17.978-30.72h-1.033l-18.185 29.588z"/>
          <g transform="translate(947.078 621.335)">
            <mask id="h" fill="#fff">
              <use xlink:href="#g"/>
            </mask>
            <use fill="#FFF" xlink:href="#g"/>
            <g mask="url(#h)">
              <path fill="#D4D3D3" d="M68.166 5.99c-1.466 7.862 1.1 15.724 7.696 23.586-9.529 12.23-20.89 18.345-34.083 18.345-19.79 0-31.884-9.172-36.282-22.276C2.565 16.91.733 9.485 0 3.37 12.46-1.87 35.182-.998 68.166 5.99z"/>
              <path fill="#E5E5E5" d="M62.713 4.915c-1.349 6.451 1.011 12.902 7.08 19.353C61.027 34.303 50.575 39.32 38.437 39.32c-18.207 0-29.334-7.526-33.38-18.278C2.36 13.875.674 7.782 0 2.765c11.464-4.3 32.368-3.584 62.713 2.15z"/>
              <path fill="#F9F7F7" d="M62.713 3.686c-1.349 4.838 1.011 9.677 7.08 14.515-8.766 7.526-19.218 11.289-31.356 11.289-18.207 0-29.334-5.645-33.38-13.708C2.36 10.406.674 5.837 0 2.074 11.464-1.152 32.368-.614 62.713 3.686z"/>
              <path fill="#FFF" d="M62.713 2.304c-1.349 3.024 1.011 6.048 7.08 9.072-8.766 4.703-19.218 7.055-31.356 7.055-18.207 0-29.334-3.528-33.38-8.567C2.36 6.504.674 3.648 0 1.296 11.464-.72 32.368-.384 62.713 2.304z"/>
            </g>
          </g>
          <g transform="scale(-1 1) rotate(51 -1004.534 -605.278)">
            <mask id="j" fill="#fff">
              <use xlink:href="#i"/>
            </mask>
            <g stroke="#014242" stroke-width="1.442" mask="url(#j)">
              <g transform="translate(36.634 26.91)">
                <circle cx="90.568" cy="89.715" r="37.493"/>
                <circle cx="90.568" cy="89.715" r="64.874"/>
                <circle cx="90.568" cy="89.715" r="89.678"/>
              </g>
            </g>
          </g>
        </g>
      </g>
    </g>
    <path fill="#122B2A" d="M1296.87 173.056l-.238-6.426-14.213-8.151.027-9.711 11.26 6.457.017-6.222-11.259-6.456.03-10.467 14.366 8.239.273-6.134-21.447-12.3-.112 38.959 21.295 12.212M1301.05 137.15c.032.645.19 1.385.477 2.22.285.835.645 1.81 1.082 2.927l7.924 19.455-8.365 10.968a13.709 13.709 0 00-1.222 1.763c-.343.586-.53 1.164-.567 1.73l7.257 4.226 7.65-10.56.2.116 7.618 19.452 6.85 3.99c-.034-.609-.217-1.402-.555-2.384a53.403 53.403 0 00-1.21-3.179l-8.275-20.306 7.755-10.736a11.66 11.66 0 001.069-1.586 3.892 3.892 0 00.513-1.674l-7.252-4.223-6.788 10.239-.251-.146-7.115-18.335-6.794-3.958M1334.831 157.184l-.107 39.01 6.571 3.921.107-39.01-6.57-3.92M1346.172 162.908l.241 6.603 10.122 5.801-.095 33.218 6.956 3.987.095-33.218 10.122 5.801.226-6.335-27.667-15.857"/>
    <path stroke="#014242" stroke-width="2.003" d="M1382.425 162.732v83.117l-122.459-71.508V91.356z"/>
  </g>
</svg>
